<?xml version="1.0" encoding="UTF-8" standalone="no"?>
<!-- Created with Inkscape (http://www.inkscape.org/) -->

<svg
   xmlns:dc="http://purl.org/dc/elements/1.1/"
   xmlns:cc="http://creativecommons.org/ns#"
   xmlns:rdf="http://www.w3.org/1999/02/22-rdf-syntax-ns#"
   xmlns:svg="http://www.w3.org/2000/svg"
   xmlns="http://www.w3.org/2000/svg"
   xmlns:sodipodi="http://sodipodi.sourceforge.net/DTD/sodipodi-0.dtd"
   xmlns:inkscape="http://www.inkscape.org/namespaces/inkscape"
   width="37.570835mm"
   height="12.132mm"
   viewBox="0 0 37.570835 12.132"
   version="1.1"
   id="svg1671"
   inkscape:version="0.92.3 (unknown)"
   sodipodi:docname="mongodb-light.svg">
  <defs
     id="defs1665" />
  <sodipodi:namedview
     id="base"
     pagecolor="#ffffff"
     bordercolor="#666666"
     borderopacity="1.0"
     inkscape:pageopacity="0.0"
     inkscape:pageshadow="2"
     inkscape:zoom="2.8"
     inkscape:cx="77.50493"
     inkscape:cy="44.440926"
     inkscape:document-units="mm"
     inkscape:current-layer="layer1"
     showgrid="false"
     fit-margin-top="0"
     fit-margin-left="0"
     fit-margin-right="0"
     fit-margin-bottom="0"
     inkscape:window-width="1920"
     inkscape:window-height="1043"
     inkscape:window-x="0"
     inkscape:window-y="0"
     inkscape:window-maximized="1"
     showguides="true"
     inkscape:guide-bbox="true">
    <sodipodi:guide
       position="18.672022,28.064736"
       orientation="1,0"
       id="guide828"
       inkscape:locked="false" />
  </sodipodi:namedview>
  <metadata
     id="metadata1668">
    <rdf:RDF>
      <cc:Work
         rdf:about="">
        <dc:format>image/svg+xml</dc:format>
        <dc:type
           rdf:resource="http://purl.org/dc/dcmitype/StillImage" />
        <dc:title />
      </cc:Work>
    </rdf:RDF>
  </metadata>
  <g
     inkscape:label="Layer 1"
     inkscape:groupmode="layer"
     id="layer1"
     transform="translate(-87.136376,-137.47566)">
    <g
       id="g1648"
       transform="matrix(0.1803436,0,0,0.26458359,70.68796,87.935564)"
       style="stroke:none">
      <rect
         y="187.23798"
         x="91.205986"
         height="45.853184"
         width="208.32918"
         id="rect1755-5-1"
         style="fill:none;fill-opacity:0;stroke:none;stroke-width:0.32100001;stroke-miterlimit:4;stroke-dasharray:none;stroke-opacity:0.95286195" />
    </g>
    <path
       id="path1382"
       d="m 121.53267,142.43124 c -0.0326,0.007 -0.0653,0.0784 -0.0653,0.1176 -0.007,0.2613 -0.0131,0.95382 -0.0131,1.42416 0,0.0131 0.0196,0.0392 0.0392,0.0392 0.098,0.007 0.33318,0.0131 0.53568,0.0131 0.28092,0 0.44424,-0.0392 0.53574,-0.0784 0.23514,-0.1176 0.3462,-0.37242 0.3462,-0.65334 0,-0.63366 -0.44424,-0.8754 -1.10406,-0.8754 -0.0457,-0.006 -0.17634,-0.006 -0.27438,0.0131 z m 1.68553,2.92021 c 0,-0.64674 -0.47695,-1.00608 -1.33927,-1.00608 -0.0392,0 -0.31356,-0.007 -0.3789,0.007 -0.0196,0.007 -0.0457,0.0196 -0.0457,0.0392 0,0.4638 -0.007,1.20204 0.0131,1.48944 0.013,0.12414 0.10452,0.30055 0.21558,0.35281 0.11754,0.0653 0.38544,0.0784 0.56832,0.0784 0.51612,0 0.96691,-0.28741 0.96691,-0.96031 z m -3.0182,-3.2795 c 0.0653,0 0.2613,0.0196 0.76434,0.0196 0.47689,0 0.85579,-0.013 1.31965,-0.013 0.56832,0 1.35229,0.20251 1.35229,1.05175 0,0.41814 -0.29401,0.75132 -0.67945,0.91464 -0.0196,0.007 -0.0196,0.0196 0,0.0261 0.54877,0.13723 1.03225,0.47695 1.03225,1.11715 0,0.62718 -0.39198,1.02565 -0.96037,1.27393 -0.34626,0.15024 -0.77742,0.2025 -1.21512,0.2025 -0.33318,0 -1.22815,-0.0392 -1.72465,-0.0261 -0.0523,-0.0196 0.0457,-0.25482 0.0914,-0.294 0.1176,-0.007 0.20904,-0.0131 0.33318,-0.0523 0.1764,-0.0457 0.19596,-0.098 0.22212,-0.36583 0.0131,-0.22866 0.0131,-1.03878 0.0131,-1.61364 0,-0.79051 0.007,-1.32619 0,-1.58749 -0.007,-0.2025 -0.0784,-0.26784 -0.22212,-0.30708 -0.11106,-0.0196 -0.294,-0.0457 -0.44424,-0.0653 -0.0327,-0.0327 0.0784,-0.25483 0.1176,-0.28093 z m -3.76952,4.06347 c 0.15684,0.12407 0.46386,0.17634 0.73824,0.17634 0.35281,0 0.70555,-0.0653 1.04527,-0.37237 0.34626,-0.31356 0.58794,-0.79698 0.58794,-1.56786 0,-0.73825 -0.28092,-1.33927 -0.85578,-1.69201 -0.32664,-0.20256 -0.74479,-0.28746 -1.22821,-0.28746 -0.1437,0 -0.28092,0.007 -0.36582,0.0457 -0.0196,0.0131 -0.0653,0.0719 -0.0653,0.10452 -0.0131,0.13068 -0.0131,1.1367 -0.0131,1.72471 0,0.60756 0,1.4568 0.0131,1.55478 0,0.098 0.0457,0.24829 0.1437,0.31363 z m -1.48297,-4.06347 c 0.12414,0 0.60102,0.0196 0.82969,0.0196 0.4116,0 0.70554,-0.0196 1.48296,-0.0196 0.65329,0 1.20205,0.17641 1.59403,0.50953 0.47688,0.4116 0.72517,0.97998 0.72517,1.67245 0,0.98646 -0.45079,1.55484 -0.90157,1.88149 -0.45072,0.33318 -1.03872,0.52914 -1.87489,0.52914 -0.44424,0 -1.20858,-0.0131 -1.84231,-0.0196 h -0.007 c -0.0326,-0.0587 0.0523,-0.2874 0.10452,-0.29394 0.16986,-0.0196 0.21558,-0.0262 0.30054,-0.0588 0.13716,-0.0523 0.16332,-0.12414 0.18294,-0.36583 0.0196,-0.45078 0.013,-0.993 0.013,-1.6071 0,-0.43771 0.007,-1.29355 -0.007,-1.56793 -0.0196,-0.2286 -0.11754,-0.2874 -0.31356,-0.32664 -0.098,-0.0196 -0.22866,-0.0457 -0.41154,-0.0653 -0.0262,-0.0458 0.0914,-0.24829 0.12408,-0.28747 v 0 z"
       inkscape:connector-curvature="0"
       style="fill:#9b7e5b;fill-rule:evenodd;stroke:none;stroke-width:0.07079292;stroke-opacity:0.95286195;fill-opacity:1" />
    <path
       id="path1384"
       d="m 107.04277,146.39018 c -0.16332,-0.0196 -0.28092,-0.0457 -0.42468,-0.11106 -0.0196,-0.0131 -0.0523,-0.0784 -0.0523,-0.10452 -0.0131,-0.22867 -0.0131,-0.88195 -0.0131,-1.31965 0,-0.3528 -0.0587,-0.65983 -0.20904,-0.87541 -0.1764,-0.24828 -0.43116,-0.39198 -0.75781,-0.39198 -0.28746,0 -0.6729,0.19602 -0.993,0.4704 -0.007,0.006 -0.0588,0.0523 -0.0523,-0.0196 0,-0.0719 0.0131,-0.21558 0.0196,-0.31356 0.007,-0.0915 -0.0457,-0.13722 -0.0457,-0.13722 -0.2091,0.10452 -0.79705,0.24174 -1.01263,0.2613 -0.15678,0.0327 -0.19596,0.18294 -0.0326,0.2352 h 0.007 c 0.17634,0.0523 0.29394,0.11106 0.38539,0.16987 0.0653,0.0523 0.0588,0.12414 0.0588,0.18294 0.007,0.48996 0.007,1.24122 -0.013,1.65283 -0.007,0.16332 -0.0523,0.22206 -0.16987,0.24822 l 0.013,-0.007 c -0.0914,0.0196 -0.16332,0.0392 -0.27438,0.0523 -0.0392,0.0392 -0.0392,0.24829 0,0.29401 0.0719,0 0.45079,-0.0196 0.76441,-0.0196 0.43116,0 0.65328,0.0196 0.76434,0.0196 0.0457,-0.0523 0.0588,-0.24829 0.0326,-0.29401 -0.12414,-0.007 -0.21558,-0.0196 -0.30048,-0.0457 -0.1176,-0.0262 -0.1503,-0.0849 -0.15684,-0.22212 -0.013,-0.34626 -0.013,-1.0779 -0.013,-1.5744 0,-0.13723 0.0392,-0.20257 0.0784,-0.24175 0.15024,-0.13062 0.39198,-0.22212 0.60756,-0.22212 0.20904,0 0.34626,0.0653 0.45079,0.1503 0.1437,0.11754 0.18942,0.28741 0.20904,0.41155 0.0326,0.28092 0.0196,0.83622 0.0196,1.31964 0,0.2613 -0.0196,0.32664 -0.1176,0.35928 -0.0457,0.0196 -0.16332,0.0458 -0.30055,0.0588 -0.0457,0.0457 -0.0326,0.24829 0,0.29401 0.18949,0 0.41161,-0.0196 0.73825,-0.0196 0.405,0 0.66636,0.0196 0.77088,0.0196 0.0326,-0.0392 0.0457,-0.22866 0.0196,-0.28092 h 6e-5 z m 1.80961,-2.49554 c -0.34626,0 -0.56184,0.26785 -0.56184,0.68593 0,0.42462 0.18942,0.91458 0.72516,0.91458 0.0914,0 0.2613,-0.0392 0.33966,-0.13062 0.12414,-0.1176 0.2091,-0.3528 0.2091,-0.60102 0,-0.54222 -0.2679,-0.86887 -0.71208,-0.86887 z m -0.0458,2.88752 c -0.13062,0 -0.22212,0.0392 -0.28086,0.0719 -0.27444,0.17634 -0.39852,0.3462 -0.39852,0.54876 0,0.18942 0.0718,0.33966 0.22866,0.47034 0.18942,0.16332 0.45072,0.24175 0.7839,0.24175 0.66637,0 0.96037,-0.35935 0.96037,-0.71209 0,-0.24828 -0.12414,-0.4116 -0.3789,-0.50304 -0.18295,-0.0784 -0.51613,-0.1176 -0.91465,-0.1176 z m 0.0458,1.69855 c -0.39852,0 -0.68598,-0.085 -0.9342,-0.27438 -0.24175,-0.18295 -0.34627,-0.45733 -0.34627,-0.64675 0,-0.0523 0.0131,-0.19602 0.13069,-0.32664 0.0718,-0.0784 0.2286,-0.22866 0.60102,-0.48342 0.013,-0.007 0.0196,-0.0131 0.0196,-0.0262 0,-0.0131 -0.0131,-0.0262 -0.0261,-0.0326 -0.30708,-0.1176 -0.39852,-0.30708 -0.42469,-0.4116 v -0.0131 c -0.006,-0.0392 -0.0195,-0.0784 0.0393,-0.11761 0.0457,-0.0326 0.11106,-0.0718 0.18288,-0.11754 0.11106,-0.0653 0.22866,-0.13722 0.30054,-0.19602 0.0131,-0.0131 0.0131,-0.0261 0.0131,-0.0392 0,-0.0131 -0.0131,-0.0262 -0.0262,-0.0326 -0.45726,-0.1503 -0.68593,-0.49002 -0.68593,-0.99954 0,-0.33318 0.15025,-0.63373 0.41809,-0.82315 0.18294,-0.14376 0.6402,-0.3201 0.94074,-0.3201 h 0.0196 c 0.30702,0.006 0.47688,0.0718 0.71856,0.15678 0.13069,0.0457 0.25483,0.0653 0.42469,0.0653 0.25476,0 0.36582,-0.0784 0.45726,-0.1698 0.007,0.013 0.0196,0.0457 0.0262,0.13062 0.007,0.085 -0.0196,0.20904 -0.085,0.30054 -0.0523,0.0718 -0.1698,0.12415 -0.2874,0.12415 h -0.0327 c -0.1176,-0.0131 -0.16986,-0.0262 -0.16986,-0.0262 l -0.0261,0.0131 c -0.007,0.0131 0,0.0261 0.007,0.0457 l 0.007,0.0131 c 0.013,0.0588 0.0392,0.23514 0.0392,0.28092 0,0.53568 -0.21558,0.77082 -0.44424,0.94722 -0.22212,0.16332 -0.47689,0.26784 -0.76435,0.294 -0.007,0 -0.0326,0 -0.0914,0.007 -0.0327,0 -0.0784,0.007 -0.085,0.007 h -0.007 c -0.0523,0.013 -0.18288,0.0784 -0.18288,0.18942 0,0.098 0.0588,0.21558 0.33966,0.2352 0.0588,0.007 0.1176,0.007 0.18294,0.0131 0.37236,0.0261 0.83623,0.0588 1.05181,0.13062 0.30048,0.11106 0.48996,0.3789 0.48996,0.69906 0,0.48342 -0.34626,0.93421 -0.92112,1.21507 -0.28093,0.12414 -0.56185,0.18948 -0.86887,0.18948 v 0 z m 3.72374,-4.55343 c -0.13722,0 -0.26136,0.0326 -0.3528,0.098 -0.25476,0.15678 -0.38544,0.47041 -0.38544,0.92767 0,0.85584 0.43116,1.45687 1.04526,1.45687 0.18294,0 0.32664,-0.0523 0.45078,-0.15678 0.18942,-0.15685 0.28747,-0.47041 0.28747,-0.90811 0,-0.84924 -0.42469,-1.41763 -1.04527,-1.41763 z m 0.1176,2.79608 c -1.11061,0 -1.50913,-0.81661 -1.50913,-1.58095 0,-0.53568 0.21558,-0.94729 0.64675,-1.24129 0.30708,-0.18942 0.6729,-0.29394 0.99954,-0.29394 0.84925,0 1.44379,0.60757 1.44379,1.48297 0,0.59448 -0.2352,1.06482 -0.68599,1.35229 -0.21558,0.1437 -0.58794,0.28092 -0.89502,0.28092 z m -11.64162,-2.79608 c -0.13722,0 -0.2613,0.0326 -0.3528,0.098 -0.25476,0.15678 -0.38544,0.47041 -0.38544,0.92767 0,0.85584 0.43116,1.45687 1.04526,1.45687 0.18294,0 0.32664,-0.0523 0.45078,-0.15678 0.18942,-0.15685 0.28747,-0.47041 0.28747,-0.90811 0,-0.84924 -0.41815,-1.41763 -1.04527,-1.41763 z m 0.1176,2.79608 c -1.1106,0 -1.509127,-0.81661 -1.509127,-1.58095 0,-0.53568 0.215581,-0.94729 0.646747,-1.24129 0.30708,-0.18942 0.6729,-0.29394 0.99954,-0.29394 0.84931,0 1.44379,0.60757 1.44379,1.48297 0,0.59448 -0.2352,1.06482 -0.68599,1.35229 -0.20904,0.1437 -0.5814,0.28092 -0.89496,0.28092 z m -7.467097,-0.0653 c -0.01308,-0.0196 -0.02616,-0.0784 -0.01962,-0.15024 0,-0.0523 0.01308,-0.085 0.01962,-0.098 0.13716,-0.0196 0.20904,-0.0392 0.2874,-0.0588 0.130681,-0.0327 0.182942,-0.10452 0.189482,-0.26784 0.01962,-0.39199 0.01962,-1.13677 0.01308,-1.65283 v -0.0131 c 0,-0.0588 0,-0.13068 -0.07188,-0.18295 -0.10452,-0.0653 -0.228661,-0.12407 -0.391982,-0.16986 -0.0588,-0.0196 -0.09798,-0.0523 -0.09144,-0.0914 0,-0.0392 0.03918,-0.0849 0.124141,-0.098 0.215581,-0.0196 0.777363,-0.15678 0.999484,-0.25476 0.01308,0.013 0.0327,0.0523 0.0327,0.10452 l -0.0065,0.0718 c -0.0065,0.0719 -0.01308,0.15684 -0.01308,0.24174 0,0.0261 0.02616,0.0457 0.05226,0.0457 0.01308,0 0.02616,-0.007 0.03924,-0.0131 0.418081,-0.32664 0.796984,-0.44424 0.992944,-0.44424 0.320162,0 0.568384,0.1503 0.757864,0.46386 0.01302,0.0196 0.0261,0.0261 0.04572,0.0261 0.01308,0 0.03264,-0.006 0.03918,-0.0196 0.385442,-0.294 0.770884,-0.4704 1.025645,-0.4704 0.607563,0 0.966905,0.45078 0.966905,1.21513 0,0.21558 0,0.4965 -0.0065,0.75132 0,0.2286 -0.0065,0.4377 -0.0065,0.58795 0,0.0326 0.04572,0.13716 0.117601,0.15678 0.09144,0.0457 0.215581,0.0653 0.378901,0.0914 h 0.0065 c 0.01308,0.0457 -0.01308,0.21558 -0.03918,0.24828 -0.03924,0 -0.09804,0 -0.16332,-0.007 -0.124141,-0.007 -0.300543,-0.0131 -0.496503,-0.0131 -0.405062,0 -0.614103,0.007 -0.816665,0.0196 -0.01302,-0.0523 -0.01956,-0.20904 0,-0.24828 0.1176,-0.0196 0.176401,-0.0392 0.248281,-0.0588 0.130682,-0.0392 0.163322,-0.098 0.169862,-0.26784 0,-0.12408 0.0261,-1.18242 -0.01308,-1.43724 -0.03918,-0.2613 -0.235202,-0.56833 -0.666363,-0.56833 -0.163321,0 -0.418082,0.0653 -0.666364,0.25476 -0.01302,0.0131 -0.0261,0.0457 -0.0261,0.0653 v 0.007 c 0.0261,0.13716 0.0261,0.294 0.0261,0.53568 v 0.42462 c 0,0.294 -0.0065,0.56838 0,0.77742 0,0.14377 0.08496,0.17641 0.156842,0.20257 0.03918,0.006 0.06528,0.013 0.09798,0.0196 0.0588,0.0131 0.117601,0.0262 0.209041,0.0457 0.01308,0.0262 0.01308,0.11106 -0.0065,0.18294 -0.0065,0.0392 -0.01962,0.0588 -0.0261,0.0653 -0.222121,-0.007 -0.450783,-0.0131 -0.783965,-0.0131 -0.09798,0 -0.267841,0.007 -0.411602,0.007 -0.117601,0 -0.228661,0.007 -0.293941,0.007 -0.0065,-0.0131 -0.01962,-0.0588 -0.01962,-0.13068 0,-0.0588 0.01308,-0.10452 0.02616,-0.1176 0.03264,-0.007 0.05874,-0.013 0.09144,-0.013 0.07836,-0.0131 0.143701,-0.0262 0.209041,-0.0392 0.111061,-0.0326 0.15024,-0.0914 0.156781,-0.23514 0.01962,-0.32664 0.03918,-1.26085 -0.0065,-1.49605 -0.07836,-0.3789 -0.293941,-0.56838 -0.640203,-0.56838 -0.202501,0 -0.457323,0.098 -0.666363,0.25482 -0.03264,0.0261 -0.0588,0.0914 -0.0588,0.15024 v 0.38544 c 0,0.47034 0,1.05835 0.0065,1.31311 0.0065,0.0784 0.03264,0.16986 0.182941,0.2025 0.03264,0.007 0.0849,0.0196 0.150241,0.0262 l 0.117601,0.0196 c 0.01308,0.0392 0.0065,0.19602 -0.01962,0.24828 -0.06534,0 -0.143701,-0.007 -0.235202,-0.007 -0.13716,-0.007 -0.313562,-0.0131 -0.509522,-0.0131 -0.228661,0 -0.391982,0.007 -0.522663,0.0131 -0.09144,-0.0131 -0.163321,-0.0131 -0.241681,-0.0131 v 0 z"
       inkscape:connector-curvature="0"
       style="fill:#f0edec;fill-rule:evenodd;stroke:none;stroke-width:0.07079292;stroke-opacity:0.95286195;fill-opacity:1" />
    <g
       id="g1398"
       style="fill:none;fill-rule:evenodd;stroke:none;stroke-width:1;stroke-opacity:0.95286195"
       transform="matrix(0.07079292,0,0,0.07079292,87.784729,138.15091)">
      <path
         id="path1386"
         d="m 35.053436,142.317 -3.783447,-1.29251 c 0,0 0.461923,-19.28678 -6.459143,-20.67082 -4.614044,-5.35225 0.738212,-227.01285 17.348425,-0.73821 0,0 -5.720931,2.86047 -6.736297,7.75166 -1.10775,4.79882 -0.369538,14.94988 -0.369538,14.94988 z"
         inkscape:connector-curvature="0"
         style="fill:#ffffff;stroke:none;stroke-opacity:0.95286195" />
      <path
         id="path1388"
         d="m 35.053436,142.317 -3.783447,-1.29251 c 0,0 0.461923,-19.28678 -6.459143,-20.67082 -4.614044,-5.35225 0.738212,-227.01285 17.348425,-0.73821 0,0 -5.720931,2.86047 -6.736297,7.75166 -1.10775,4.79882 -0.369538,14.94988 -0.369538,14.94988 z"
         inkscape:connector-curvature="0"
         style="fill:#a6a385;stroke:none;stroke-opacity:0.95286195" />
      <path
         id="path1390"
         d="m 37.084168,123.67606 c 0,0 33.128904,-21.77856 25.377241,-67.089267 C 54.9869,23.642658 37.360458,12.845761 35.422974,8.6927757 33.300721,5.7399258 31.269989,0.57243845 31.269989,0.57243845 L 32.654893,92.207487 c 0,0.09238 -2.861329,28.053803 4.429275,31.468573"
         inkscape:connector-curvature="0"
         style="fill:#ffffff;stroke:none;stroke-opacity:0.95286195" />
      <path
         id="path1392"
         d="m 37.084168,123.67606 c 0,0 33.128904,-21.77856 25.377241,-67.089267 C 54.9869,23.642658 37.360458,12.845761 35.422974,8.6927757 33.300721,5.7399258 31.269989,0.57243845 31.269989,0.57243845 L 32.654893,92.207487 c 0,0.09238 -2.861329,28.053803 4.429275,31.468573"
         inkscape:connector-curvature="0"
         style="fill:#499d4a;stroke:none;stroke-opacity:0.95286195" />
      <path
         id="path1394"
         d="m 29.332506,124.87533 c 0,0 -31.0990355,-21.22512 -29.25307261,-58.598527 C 1.8321484,28.90253 23.795481,10.538739 28.039987,7.2163508 c 2.768944,-2.95285 2.861328,-4.0606004 3.046097,-7.01345029 1.937484,4.15298479 1.56881,62.10568649 1.8451,68.93436749 0.830597,26.300223 -1.476425,50.755342 -3.598678,55.738062 z"
         inkscape:connector-curvature="0"
         style="fill:#ffffff;stroke:none;stroke-opacity:0.95286195" />
      <path
         id="path1396"
         d="m 29.332506,124.87533 c 0,0 -31.0990355,-21.22512 -29.25307261,-58.598527 C 1.8321484,28.90253 23.795481,10.538739 28.039987,7.2163508 c 2.768944,-2.95285 2.861328,-4.0606004 3.046097,-7.01345029 1.937484,4.15298479 1.56881,62.10568649 1.8451,68.93436749 0.830597,26.300223 -1.476425,50.755342 -3.598678,55.738062 z"
         inkscape:connector-curvature="0"
         style="fill:#58aa50;stroke:none;stroke-opacity:0.95286195" />
    </g>
  </g>
</svg>
