<?xml version="1.0" encoding="UTF-8" standalone="no"?>
<!-- Created with Inkscape (http://www.inkscape.org/) -->

<svg
   width="172"
   height="45"
   viewBox="0 0 45.508335 11.90625"
   version="1.1"
   id="svg1671"
   inkscape:version="1.3 (0e150ed6c4, 2023-07-21)"
   sodipodi:docname="aws-sdk-js.svg"
   xmlns:inkscape="http://www.inkscape.org/namespaces/inkscape"
   xmlns:sodipodi="http://sodipodi.sourceforge.net/DTD/sodipodi-0.dtd"
   xmlns="http://www.w3.org/2000/svg"
   xmlns:svg="http://www.w3.org/2000/svg"
   xmlns:rdf="http://www.w3.org/1999/02/22-rdf-syntax-ns#"
   xmlns:cc="http://creativecommons.org/ns#"
   xmlns:dc="http://purl.org/dc/elements/1.1/">
  <defs
     id="defs1665" />
  <sodipodi:namedview
     id="base"
     pagecolor="#ffffff"
     bordercolor="#666666"
     borderopacity="1.0"
     inkscape:pageopacity="0.0"
     inkscape:pageshadow="2"
     inkscape:zoom="5.6"
     inkscape:cx="66.25"
     inkscape:cy="-4.2857143"
     inkscape:document-units="mm"
     inkscape:current-layer="layer1"
     showgrid="true"
     fit-margin-top="0"
     fit-margin-left="0"
     fit-margin-right="0"
     fit-margin-bottom="0"
     inkscape:window-width="1720"
     inkscape:window-height="1376"
     inkscape:window-x="0"
     inkscape:window-y="27"
     inkscape:window-maximized="0"
     showguides="true"
     inkscape:guide-bbox="true"
     showborder="true"
     units="px"
     inkscape:showpageshadow="2"
     inkscape:pagecheckerboard="0"
     inkscape:deskcolor="#d1d1d1">
    <sodipodi:guide
       position="22.886458,11.425772"
       orientation="1,0"
       id="guide828"
       inkscape:locked="false"
       inkscape:label=""
       inkscape:color="rgb(0,0,255)" />
    <inkscape:grid
       id="grid1"
       units="px"
       originx="0"
       originy="0"
       spacingx="0.26458334"
       spacingy="0.26458333"
       empcolor="#0099e5"
       empopacity="0.30196078"
       color="#0099e5"
       opacity="0.14901961"
       empspacing="5"
       dotted="false"
       gridanglex="30"
       gridanglez="30"
       visible="true" />
  </sodipodi:namedview>
  <metadata
     id="metadata1668">
    <rdf:RDF>
      <cc:Work
         rdf:about="">
        <dc:format>image/svg+xml</dc:format>
        <dc:type
           rdf:resource="http://purl.org/dc/dcmitype/StillImage" />
      </cc:Work>
    </rdf:RDF>
  </metadata>
  <g
     inkscape:label="Layer 1"
     inkscape:groupmode="layer"
     id="layer1"
     transform="translate(-87.136376,-137.47566)">
    <g
       id="g1"
       transform="matrix(1.1354491,0,0,1.1354491,-12.471197,-19.265633)">
      <text
         id="text2609"
         y="142.61234"
         x="98.193466"
         style="font-style:normal;font-weight:normal;font-size:8.58779px;line-height:1.25;font-family:sans-serif;letter-spacing:0px;word-spacing:0px;fill:#205e00;fill-opacity:1;stroke:none;stroke-width:0.214695"
         xml:space="preserve"><tspan
           style="font-style:normal;font-variant:normal;font-weight:normal;font-stretch:normal;font-size:4.58016px;font-family:'Source Sans Pro';-inkscape-font-specification:'Source Sans Pro, Normal';font-variant-ligatures:normal;font-variant-caps:normal;font-variant-numeric:normal;font-feature-settings:normal;text-align:start;writing-mode:lr-tb;text-anchor:start;fill:#205e00;fill-opacity:1;stroke-width:0.214695"
           y="142.61234"
           x="98.193466"
           id="tspan2607"
           sodipodi:role="line">AWS SDK</tspan></text>
      <g
         transform="matrix(0.14128185,0,0,0.14128185,85.275437,136.22231)"
         id="g891">
        <polygon
           style="fill:#ffffff"
           points="49.98,85.98 81.72,67.95 81.72,31.98 49.98,49.96 "
           id="polygon863" />
        <polygon
           style="fill:#ffffff"
           points="18.3,67.94 50,85.94 50,49.97 18.3,32.01 "
           id="polygon865" />
        <polygon
           style="fill:#ffffff"
           points="81.5,31.98 50,14.13 18.5,31.98 50,49.86 "
           id="polygon867" />
        <polygon
           style="fill:#ffffff"
           points="79.67,32 79.64,31.98 50,48.8 "
           id="polygon869" />
        <polygon
           style="fill:#ffffff"
           points="20.36,31.98 20.33,32 50,48.8 "
           id="polygon871" />
        <circle
           style="fill:#ffffff"
           r="0"
           cx="50"
           cy="48.799999"
           id="circle873" />
        <path
           style="fill:#444444"
           inkscape:connector-curvature="0"
           d="M 81.66,30.83 50,12.89 18.34,30.83 l -1,0.59 v 37.12 l 31.7,18 1,0.57 1,-0.57 31.7,-18 V 31.41 Z m -1,36.55 L 51,84.24 V 50.54 L 80.7,33.71 Z M 49,84.24 19.3,67.37 V 33.71 L 49,50.54 Z M 20.36,32 50,15.19 79.64,32 v 0 L 50,48.8 v 0 L 20.33,32 Z"
           id="path875" />
        <polygon
           style="fill:#205e00"
           points="50.13,69.39 67.18,59.72 67.18,40.41 50.13,50.07 "
           id="polygon877" />
        <polygon
           style="fill:#205e00"
           points="32.82,59.72 49.87,69.39 49.87,50.07 32.82,40.41 "
           id="polygon879" />
        <polygon
           style="fill:#205e00"
           points="67,40.15 50,30.52 33,40.15 50,49.81 "
           id="polygon881" />
        <polygon
           style="fill:#96bf3d"
           points="50,48.83 65.29,40.17 65.27,40.15 50,48.82 "
           id="polygon883" />
        <polygon
           style="fill:#96bf3d"
           points="34.73,40.15 34.71,40.17 50,48.83 50,48.82 "
           id="polygon885" />
        <circle
           style="fill:#96bf3d"
           r="0"
           cx="50"
           cy="48.82"
           id="circle887" />
        <path
           style="fill:#ffffff"
           inkscape:connector-curvature="0"
           d="M 67.3,39 50,29.21 32.7,39 l -1,0.58 v 20.81 l 17.3,9.83 1,0.57 1,-0.57 17.32,-9.83 V 39.58 Z m -1,20.22 -15.3,8.7 V 50.56 L 66.32,41.88 Z M 49,67.92 33.68,59.22 V 41.88 L 49,50.56 Z M 34.73,40.15 50,31.51 65.27,40.16 v 0 L 50,48.82 v 0 L 34.71,40.17 Z"
           id="path889" />
      </g>
      <text
         id="text2609-8"
         y="146.86005"
         x="98.131775"
         style="font-style:normal;font-variant:normal;font-weight:300;font-stretch:normal;font-size:3.60832px;line-height:1.25;font-family:'Source Sans Pro';-inkscape-font-specification:'Source Sans Pro, Light';font-variant-ligatures:normal;font-variant-caps:normal;font-variant-numeric:normal;font-feature-settings:normal;text-align:start;letter-spacing:0px;word-spacing:0px;writing-mode:lr-tb;text-anchor:start;fill:#205e00;fill-opacity:1;stroke:none;stroke-width:0.169138"
         xml:space="preserve"><tspan
           style="font-style:normal;font-variant:normal;font-weight:300;font-stretch:normal;font-size:3.60832px;font-family:'Source Sans Pro';-inkscape-font-specification:'Source Sans Pro, Light';font-variant-ligatures:normal;font-variant-caps:normal;font-variant-numeric:normal;font-feature-settings:normal;text-align:start;writing-mode:lr-tb;text-anchor:start;fill:#205e00;fill-opacity:1;stroke-width:0.169138"
           y="146.86005"
           x="98.131775"
           id="tspan2607-0"
           sodipodi:role="line">JavaScript</tspan></text>
    </g>
  </g>
</svg>
