<?xml version="1.0" encoding="UTF-8" standalone="no"?>
<!-- Created with Inkscape (http://www.inkscape.org/) -->

<svg
   xmlns:dc="http://purl.org/dc/elements/1.1/"
   xmlns:cc="http://creativecommons.org/ns#"
   xmlns:rdf="http://www.w3.org/1999/02/22-rdf-syntax-ns#"
   xmlns:svg="http://www.w3.org/2000/svg"
   xmlns="http://www.w3.org/2000/svg"
   xmlns:sodipodi="http://sodipodi.sourceforge.net/DTD/sodipodi-0.dtd"
   xmlns:inkscape="http://www.inkscape.org/namespaces/inkscape"
   width="45.503891mm"
   height="12.124982mm"
   viewBox="0 0 45.503891 12.124982"
   version="1.1"
   id="svg1671"
   inkscape:version="0.92.3 (unknown)"
   sodipodi:docname="markdown.svg">
  <defs
     id="defs1665" />
  <sodipodi:namedview
     id="base"
     pagecolor="#ffffff"
     bordercolor="#666666"
     borderopacity="1.0"
     inkscape:pageopacity="0.0"
     inkscape:pageshadow="2"
     inkscape:zoom="2.8"
     inkscape:cx="-24.605008"
     inkscape:cy="41.570519"
     inkscape:document-units="mm"
     inkscape:current-layer="layer1"
     showgrid="false"
     fit-margin-top="0"
     fit-margin-left="0"
     fit-margin-right="0"
     fit-margin-bottom="0"
     inkscape:window-width="1920"
     inkscape:window-height="1043"
     inkscape:window-x="0"
     inkscape:window-y="0"
     inkscape:window-maximized="1"
     showguides="true"
     inkscape:guide-bbox="true"
     showborder="false">
    <sodipodi:guide
       position="-17.011151,30.423574"
       orientation="1,0"
       id="guide828"
       inkscape:locked="false" />
  </sodipodi:namedview>
  <metadata
     id="metadata1668">
    <rdf:RDF>
      <cc:Work
         rdf:about="">
        <dc:format>image/svg+xml</dc:format>
        <dc:type
           rdf:resource="http://purl.org/dc/dcmitype/StillImage" />
        <dc:title />
      </cc:Work>
    </rdf:RDF>
  </metadata>
  <g
     inkscape:label="Layer 1"
     inkscape:groupmode="layer"
     id="layer1"
     transform="translate(-87.138598,-137.47917)">
    <g
       id="g828"
       transform="matrix(1.0000976,0,0,1.0000976,-0.00850834,-0.01460758)">
      <g
         style="stroke:none;stroke-opacity:1"
         transform="matrix(0.21842303,0,0,0.26443054,67.21711,87.967729)"
         id="g1648">
        <rect
           style="fill:none;fill-opacity:0;stroke:none;stroke-width:0.32100001;stroke-miterlimit:4;stroke-dasharray:none;stroke-opacity:1"
           id="rect1755-5-1"
           width="208.32918"
           height="45.853184"
           x="91.205986"
           y="187.23798" />
      </g>
      <text
         id="text2609"
         y="145.20981"
         x="107.2695"
         style="font-style:normal;font-weight:normal;font-size:10.58333302px;line-height:1.25;font-family:sans-serif;letter-spacing:0px;word-spacing:0px;fill:#000000;fill-opacity:1;stroke:none;stroke-width:0.26458332"
         xml:space="preserve"><tspan
           style="font-style:normal;font-variant:normal;font-weight:normal;font-stretch:normal;font-size:5.64444447px;font-family:'Source Sans Pro';-inkscape-font-specification:'Source Sans Pro, Normal';font-variant-ligatures:normal;font-variant-caps:normal;font-variant-numeric:normal;font-feature-settings:normal;text-align:start;writing-mode:lr-tb;text-anchor:start;stroke-width:0.26458332"
           y="145.20981"
           x="107.2695"
           id="tspan2607"
           sodipodi:role="line">Markdown</tspan></text>
      <g
         transform="matrix(0.0704782,0,0,0.0704782,87.724494,137.85548)"
         id="g2193">
        <path
           style="fill:#000000"
           inkscape:connector-curvature="0"
           d="M 238.37126,157.89222 H 18.39521 C 8.4311377,157.89222 0,149.46108 0,139.49701 V 18.39521 C 0,8.4311377 8.4311377,0 18.39521,0 H 237.60479 C 247.56886,0 256,8.4311377 256,18.39521 v 121.1018 c 0,9.96407 -7.66467,18.39521 -17.62874,18.39521 z M 18.39521,12.263473 c -3.065869,0 -6.131737,3.065868 -6.131737,6.131737 v 121.1018 c 0,3.83233 3.065868,6.13173 6.131737,6.13173 h 219.20958 c 3.83234,0 6.13174,-3.06587 6.13174,-6.13173 V 18.39521 c 0,-3.832336 -3.06587,-6.131737 -6.13174,-6.131737 0.76647,0 -219.20958,0 -219.20958,0 z M 36.790419,121.1018 V 36.790419 H 61.317365 L 85.844311,67.449102 110.37126,36.790419 H 134.8982 V 121.1018 H 110.37126 V 72.814371 L 85.844311,103.47305 61.317365,72.814371 V 121.1018 Z m 154.059881,0 -36.79042,-40.622758 h 24.52695 V 36.790419 h 24.52694 v 42.922156 h 24.52695 z"
           id="path2191" />
      </g>
    </g>
  </g>
</svg>
