<?xml version="1.0" encoding="UTF-8" standalone="no"?>
<!-- Created with Inkscape (http://www.inkscape.org/) -->

<svg
   width="172"
   height="45"
   viewBox="0 0 45.50833 11.90625"
   version="1.1"
   id="svg1671"
   inkscape:version="1.3 (0e150ed6c4, 2023-07-21)"
   sodipodi:docname="material-ui.svg"
   xmlns:inkscape="http://www.inkscape.org/namespaces/inkscape"
   xmlns:sodipodi="http://sodipodi.sourceforge.net/DTD/sodipodi-0.dtd"
   xmlns="http://www.w3.org/2000/svg"
   xmlns:svg="http://www.w3.org/2000/svg"
   xmlns:rdf="http://www.w3.org/1999/02/22-rdf-syntax-ns#"
   xmlns:cc="http://creativecommons.org/ns#"
   xmlns:dc="http://purl.org/dc/elements/1.1/">
  <defs
     id="defs1665" />
  <sodipodi:namedview
     id="base"
     pagecolor="#ffffff"
     bordercolor="#666666"
     borderopacity="1.0"
     inkscape:pageopacity="0.0"
     inkscape:pageshadow="2"
     inkscape:zoom="3.959798"
     inkscape:cx="79.296975"
     inkscape:cy="39.143411"
     inkscape:document-units="mm"
     inkscape:current-layer="layer1"
     showgrid="true"
     fit-margin-top="0"
     fit-margin-left="0"
     fit-margin-right="0"
     fit-margin-bottom="0"
     inkscape:window-width="3440"
     inkscape:window-height="1376"
     inkscape:window-x="0"
     inkscape:window-y="27"
     inkscape:window-maximized="1"
     showguides="true"
     inkscape:guide-bbox="true"
     showborder="true"
     units="px"
     inkscape:showpageshadow="2"
     inkscape:pagecheckerboard="0"
     inkscape:deskcolor="#d1d1d1">
    <sodipodi:guide
       position="20.85875,29.076556"
       orientation="1,0"
       id="guide828"
       inkscape:locked="false"
       inkscape:label=""
       inkscape:color="rgb(0,0,255)" />
    <inkscape:grid
       id="grid1"
       units="px"
       originx="0"
       originy="0"
       spacingx="0.26458331"
       spacingy="0.26458333"
       empcolor="#0099e5"
       empopacity="0.30196078"
       color="#0099e5"
       opacity="0.14901961"
       empspacing="5"
       dotted="false"
       gridanglex="30"
       gridanglez="30"
       visible="true" />
  </sodipodi:namedview>
  <metadata
     id="metadata1668">
    <rdf:RDF>
      <cc:Work
         rdf:about="">
        <dc:format>image/svg+xml</dc:format>
        <dc:type
           rdf:resource="http://purl.org/dc/dcmitype/StillImage" />
      </cc:Work>
    </rdf:RDF>
  </metadata>
  <g
     inkscape:label="Layer 1"
     inkscape:groupmode="layer"
     id="layer1"
     transform="translate(-88.786925,-138.71323)">
    <g
       id="g1648"
       transform="matrix(0.20755057,0,0,0.26452286,69.076684,87.948326)"
       style="stroke:none;stroke-opacity:1">
      <rect
         y="187.23798"
         x="91.205986"
         height="45.853184"
         width="208.32918"
         id="rect1755-5-1"
         style="fill:none;fill-opacity:0;stroke:none;stroke-width:0.321;stroke-miterlimit:4;stroke-dasharray:none;stroke-opacity:1" />
    </g>
    <g
       id="g1"
       transform="matrix(0.99702459,0,0,1.1821611,0.2641775,-25.268155)">
      <g
         aria-label="Material UI"
         style="font-style:normal;font-weight:normal;font-size:10.5833px;line-height:1.25;font-family:sans-serif;letter-spacing:0px;word-spacing:0px;fill:#0081cb;fill-opacity:1;stroke:none;stroke-width:0.264583"
         id="text2609">
        <path
           d="m 104.27052,140.81149 h 0.82958 l 1.05007,2.80018 1.05558,-2.80018 h 0.82957 v 4.11483 h -0.54294 v -3.61322 l -1.06109,2.82222 h -0.55949 l -1.06108,-2.82222 v 3.61322 h -0.5402 z"
           style="font-style:normal;font-variant:normal;font-weight:normal;font-stretch:normal;font-size:5.64444px;font-family:Roboto;-inkscape-font-specification:'Roboto, Normal';font-variant-ligatures:normal;font-variant-caps:normal;font-variant-numeric:normal;font-feature-settings:normal;text-align:start;writing-mode:lr-tb;text-anchor:start;fill:#0081cb;fill-opacity:1;stroke-width:0.264583"
           id="path27" />
        <path
           d="m 110.52406,143.37464 q -0.6146,0 -0.85163,0.14056 -0.23702,0.14056 -0.23702,0.47956 0,0.2701 0.17639,0.42995 0.17915,0.1571 0.48507,0.1571 0.42168,0 0.67524,-0.29766 0.25631,-0.30041 0.25631,-0.79651 v -0.113 z m 1.01148,-0.20946 v 1.76114 h -0.50712 v -0.46854 q -0.17363,0.28112 -0.4327,0.41617 -0.25907,0.13229 -0.6339,0.13229 -0.47404,0 -0.75516,-0.26458 -0.27837,-0.26734 -0.27837,-0.71383 0,-0.52089 0.34727,-0.78548 0.35002,-0.26458 1.0418,-0.26458 h 0.71106 v -0.0496 q 0,-0.35002 -0.23151,-0.54019 -0.22875,-0.19293 -0.64492,-0.19293 -0.26458,0 -0.51539,0.0634 -0.2508,0.0634 -0.48231,0.19017 v -0.46853 q 0.27837,-0.10749 0.54019,-0.15985 0.26183,-0.0551 0.50988,-0.0551 0.66972,0 1.00045,0.34726 0.33073,0.34727 0.33073,1.05282 z"
           style="font-style:normal;font-variant:normal;font-weight:normal;font-stretch:normal;font-size:5.64444px;font-family:Roboto;-inkscape-font-specification:'Roboto, Normal';font-variant-ligatures:normal;font-variant-caps:normal;font-variant-numeric:normal;font-feature-settings:normal;text-align:start;writing-mode:lr-tb;text-anchor:start;fill:#0081cb;fill-opacity:1;stroke-width:0.264583"
           id="path29" />
        <path
           d="m 113.08446,140.96308 v 0.87643 h 1.04455 v 0.39412 h -1.04455 v 1.67569 q 0,0.37759 0.10197,0.48507 0.10473,0.10749 0.42168,0.10749 h 0.5209 v 0.42444 h -0.5209 q -0.58704,0 -0.81029,-0.21773 -0.22324,-0.22049 -0.22324,-0.79927 v -1.67569 h -0.37207 v -0.39412 h 0.37207 v -0.87643 z"
           style="font-style:normal;font-variant:normal;font-weight:normal;font-stretch:normal;font-size:5.64444px;font-family:Roboto;-inkscape-font-specification:'Roboto, Normal';font-variant-ligatures:normal;font-variant-caps:normal;font-variant-numeric:normal;font-feature-settings:normal;text-align:start;writing-mode:lr-tb;text-anchor:start;fill:#0081cb;fill-opacity:1;stroke-width:0.264583"
           id="path31" />
        <path
           d="m 117.43906,143.25613 v 0.24805 h -2.33164 q 0.0331,0.52365 0.31419,0.79926 0.28388,0.27285 0.78824,0.27285 0.29214,0 0.56499,-0.0717 0.27561,-0.0717 0.54571,-0.21498 v 0.47956 q -0.27286,0.11575 -0.55949,0.17639 -0.28663,0.0606 -0.58153,0.0606 -0.73863,0 -1.17133,-0.42995 -0.42995,-0.42994 -0.42995,-1.16306 0,-0.75792 0.4079,-1.20165 0.41065,-0.44648 1.10519,-0.44648 0.62287,0 0.98392,0.40238 0.3638,0.39963 0.3638,1.08865 z m -0.50712,-0.14883 q -0.006,-0.41616 -0.23427,-0.66421 -0.226,-0.24805 -0.60082,-0.24805 -0.42444,0 -0.68075,0.23978 -0.25356,0.23978 -0.29215,0.67524 z"
           style="font-style:normal;font-variant:normal;font-weight:normal;font-stretch:normal;font-size:5.64444px;font-family:Roboto;-inkscape-font-specification:'Roboto, Normal';font-variant-ligatures:normal;font-variant-caps:normal;font-variant-numeric:normal;font-feature-settings:normal;text-align:start;writing-mode:lr-tb;text-anchor:start;fill:#0081cb;fill-opacity:1;stroke-width:0.264583"
           id="path33" />
        <path
           d="m 120.06009,142.31355 q -0.0854,-0.0496 -0.18742,-0.0717 -0.0992,-0.0248 -0.22048,-0.0248 -0.42995,0 -0.66146,0.28112 -0.22876,0.27837 -0.22876,0.80202 v 1.62609 h -0.50987 v -3.08681 h 0.50987 v 0.47956 q 0.15986,-0.28112 0.41617,-0.41617 0.25632,-0.1378 0.62287,-0.1378 0.0524,0 0.11576,0.008 0.0634,0.006 0.14056,0.0193 z"
           style="font-style:normal;font-variant:normal;font-weight:normal;font-stretch:normal;font-size:5.64444px;font-family:Roboto;-inkscape-font-specification:'Roboto, Normal';font-variant-ligatures:normal;font-variant-caps:normal;font-variant-numeric:normal;font-feature-settings:normal;text-align:start;writing-mode:lr-tb;text-anchor:start;fill:#0081cb;fill-opacity:1;stroke-width:0.264583"
           id="path35" />
        <path
           d="m 120.59752,141.83951 h 0.50712 v 3.08681 h -0.50712 z m 0,-1.20165 h 0.50712 v 0.64217 h -0.50712 z"
           style="font-style:normal;font-variant:normal;font-weight:normal;font-stretch:normal;font-size:5.64444px;font-family:Roboto;-inkscape-font-specification:'Roboto, Normal';font-variant-ligatures:normal;font-variant-caps:normal;font-variant-numeric:normal;font-feature-settings:normal;text-align:start;writing-mode:lr-tb;text-anchor:start;fill:#0081cb;fill-opacity:1;stroke-width:0.264583"
           id="path37" />
        <path
           d="m 123.56582,143.37464 q -0.61461,0 -0.85163,0.14056 -0.23702,0.14056 -0.23702,0.47956 0,0.2701 0.17638,0.42995 0.17915,0.1571 0.48507,0.1571 0.42168,0 0.67524,-0.29766 0.25632,-0.30041 0.25632,-0.79651 v -0.113 z m 1.01148,-0.20946 v 1.76114 h -0.50712 v -0.46854 q -0.17364,0.28112 -0.43271,0.41617 -0.25907,0.13229 -0.63389,0.13229 -0.47405,0 -0.75517,-0.26458 -0.27836,-0.26734 -0.27836,-0.71383 0,-0.52089 0.34726,-0.78548 0.35002,-0.26458 1.0418,-0.26458 h 0.71107 v -0.0496 q 0,-0.35002 -0.23151,-0.54019 -0.22876,-0.19293 -0.64492,-0.19293 -0.26459,0 -0.51539,0.0634 -0.2508,0.0634 -0.48231,0.19017 v -0.46853 q 0.27836,-0.10749 0.54019,-0.15985 0.26182,-0.0551 0.50987,-0.0551 0.66973,0 1.00046,0.34726 0.33073,0.34727 0.33073,1.05282 z"
           style="font-style:normal;font-variant:normal;font-weight:normal;font-stretch:normal;font-size:5.64444px;font-family:Roboto;-inkscape-font-specification:'Roboto, Normal';font-variant-ligatures:normal;font-variant-caps:normal;font-variant-numeric:normal;font-feature-settings:normal;text-align:start;writing-mode:lr-tb;text-anchor:start;fill:#0081cb;fill-opacity:1;stroke-width:0.264583"
           id="path39" />
        <path
           d="m 125.6246,140.63786 h 0.50712 v 4.28846 h -0.50712 z"
           style="font-style:normal;font-variant:normal;font-weight:normal;font-stretch:normal;font-size:5.64444px;font-family:Roboto;-inkscape-font-specification:'Roboto, Normal';font-variant-ligatures:normal;font-variant-caps:normal;font-variant-numeric:normal;font-feature-settings:normal;text-align:start;writing-mode:lr-tb;text-anchor:start;fill:#0081cb;fill-opacity:1;stroke-width:0.264583"
           id="path41" />
        <path
           d="m 128.94568,140.81149 h 0.55948 v 2.49976 q 0,0.66146 0.23978,0.95361 0.23978,0.28938 0.77721,0.28938 0.53468,0 0.77446,-0.28938 0.23978,-0.29215 0.23978,-0.95361 v -2.49976 h 0.55948 v 2.56867 q 0,0.80477 -0.39963,1.21543 -0.39687,0.41065 -1.17409,0.41065 -0.77997,0 -1.1796,-0.41065 -0.39687,-0.41066 -0.39687,-1.21543 z"
           style="font-style:normal;font-variant:normal;font-weight:normal;font-stretch:normal;font-size:5.64444px;font-family:Roboto;-inkscape-font-specification:'Roboto, Normal';font-variant-ligatures:normal;font-variant-caps:normal;font-variant-numeric:normal;font-feature-settings:normal;text-align:start;writing-mode:lr-tb;text-anchor:start;fill:#0081cb;fill-opacity:1;stroke-width:0.264583"
           id="path43" />
        <path
           d="m 133.14318,140.81149 h 0.55673 v 4.11483 h -0.55673 z"
           style="font-style:normal;font-variant:normal;font-weight:normal;font-stretch:normal;font-size:5.64444px;font-family:Roboto;-inkscape-font-specification:'Roboto, Normal';font-variant-ligatures:normal;font-variant-caps:normal;font-variant-numeric:normal;font-feature-settings:normal;text-align:start;writing-mode:lr-tb;text-anchor:start;fill:#0081cb;fill-opacity:1;stroke-width:0.264583"
           id="path45" />
      </g>
      <g
         id="g2976"
         transform="matrix(0.02114549,0,0,0.02114549,88.786925,138.71323)">
        <path
           id="path2956"
           d="M 0,259.8 V 0 l 225,129.9 v 86.6 L 75,129.9 v 173.2 z"
           inkscape:connector-curvature="0"
           style="fill:#00b0ff" />
        <path
           id="path2958"
           d="M 225,129.9 450,0 v 259.8 l -150,86.6 -75,-43.3 150,-86.6 v -86.6 l -150,86.6 z"
           inkscape:connector-curvature="0"
           style="fill:#0081cb" />
        <path
           id="path2960"
           d="m 225,303.1 v 86.6 l 150,86.6 v -86.6 z"
           inkscape:connector-curvature="0"
           style="fill:#00b0ff" />
        <path
           id="path2962"
           d="M 375,476.3 600,346.4 V 173.2 l -75,43.3 v 86.6 L 375,389.7 Z M 525,129.9 V 43.3 L 600,0 v 86.6 z"
           inkscape:connector-curvature="0"
           style="fill:#0081cb" />
      </g>
    </g>
  </g>
</svg>
