<?xml version="1.0" encoding="UTF-8" standalone="no"?>
<!-- Created with Inkscape (http://www.inkscape.org/) -->

<svg
   width="172"
   height="45"
   viewBox="0 0 45.508336 11.90625"
   version="1.1"
   id="svg1671"
   inkscape:version="1.3 (0e150ed6c4, 2023-07-21)"
   sodipodi:docname="mocha.svg"
   xmlns:inkscape="http://www.inkscape.org/namespaces/inkscape"
   xmlns:sodipodi="http://sodipodi.sourceforge.net/DTD/sodipodi-0.dtd"
   xmlns="http://www.w3.org/2000/svg"
   xmlns:svg="http://www.w3.org/2000/svg"
   xmlns:rdf="http://www.w3.org/1999/02/22-rdf-syntax-ns#"
   xmlns:cc="http://creativecommons.org/ns#"
   xmlns:dc="http://purl.org/dc/elements/1.1/">
  <defs
     id="defs1665" />
  <sodipodi:namedview
     id="base"
     pagecolor="#ffffff"
     bordercolor="#666666"
     borderopacity="1.0"
     inkscape:pageopacity="0.0"
     inkscape:pageshadow="2"
     inkscape:zoom="2.8"
     inkscape:cx="25.357143"
     inkscape:cy="26.071429"
     inkscape:document-units="mm"
     inkscape:current-layer="layer1"
     showgrid="true"
     fit-margin-top="0"
     fit-margin-left="0"
     fit-margin-right="0"
     fit-margin-bottom="0"
     inkscape:window-width="1720"
     inkscape:window-height="1376"
     inkscape:window-x="0"
     inkscape:window-y="27"
     inkscape:window-maximized="0"
     showguides="true"
     inkscape:guide-bbox="true"
     showborder="false"
     units="px"
     inkscape:showpageshadow="2"
     inkscape:pagecheckerboard="0"
     inkscape:deskcolor="#d1d1d1">
    <sodipodi:guide
       position="22.886459,28.123659"
       orientation="1,0"
       id="guide828"
       inkscape:locked="false"
       inkscape:label=""
       inkscape:color="rgb(0,0,255)" />
    <inkscape:grid
       id="grid1"
       units="px"
       originx="0"
       originy="0"
       spacingx="0.26458335"
       spacingy="0.26458333"
       empcolor="#0099e5"
       empopacity="0.30196078"
       color="#0099e5"
       opacity="0.14901961"
       empspacing="5"
       dotted="false"
       gridanglex="30"
       gridanglez="30"
       visible="true" />
  </sodipodi:namedview>
  <metadata
     id="metadata1668">
    <rdf:RDF>
      <cc:Work
         rdf:about="">
        <dc:format>image/svg+xml</dc:format>
        <dc:type
           rdf:resource="http://purl.org/dc/dcmitype/StillImage" />
      </cc:Work>
    </rdf:RDF>
  </metadata>
  <g
     inkscape:label="Layer 1"
     inkscape:groupmode="layer"
     id="layer1"
     transform="translate(-87.098985,-137.44527)">
    <g
       id="g1"
       transform="matrix(1.0785467,0,0,1.0785467,-14.463793,-11.447973)">
      <g
         style="stroke:none;stroke-opacity:1"
         transform="matrix(0.03796011,0,0,0.03796011,94.166322,138.04987)"
         id="g2276">
        <path
           style="fill:#8d6748;stroke:none;stroke-opacity:1"
           inkscape:connector-curvature="0"
           d="m 248.1951,223.7661 -112.39,64.937 c -4.839,2.809 -10.771,2.809 -15.61,0 l -112.39,-64.937 c -4.839,-2.81 -7.805,-7.961 -7.805,-13.424 V 80.4681 c 0,-5.619 2.966,-10.614 7.805,-13.424 l 112.39,-64.937 c 4.839,-2.809 10.771,-2.809 15.61,0 l 112.39,64.937 c 4.839,2.81 7.805,7.961 7.805,13.424 v 129.874 c -0.156,5.463 -3.122,10.614 -7.805,13.424 z"
           id="path2272" />
        <path
           style="fill:#ffffff;stroke:none;stroke-opacity:1"
           inkscape:connector-curvature="0"
           d="m 127.8439,19.7466 c -2.341,0 -4.683,0.624 -6.712,1.873 l -97.093,56.039 c -4.215,2.342 -6.712,6.868 -6.712,11.551 v 112.078 c 0,4.839 2.497,9.21 6.712,11.552 l 97.093,56.039 c 2.029,1.249 4.371,1.873 6.712,1.873 2.341,0 4.683,-0.624 6.712,-1.873 l 97.093,-56.039 c 4.215,-2.342 6.712,-6.869 6.712,-11.551 V 89.2096 c 0,-4.839 -2.497,-9.209 -6.712,-11.551 l -97.093,-56.039 c -2.029,-1.249 -4.371,-1.873 -6.712,-1.873 z m 0,4.683 v 0 c 1.561,0 2.966,0.468 4.371,1.249 l 97.092,56.039 c 2.654,1.561 4.371,4.527 4.371,7.649 v 112.078 c 0,3.122 -1.717,6.087 -4.371,7.648 l -97.092,56.039 c -1.405,0.781 -2.81,1.249 -4.371,1.249 -1.561,0 -3.122,-0.468 -4.371,-1.249 l -97.092,-56.039 c -2.654,-1.561 -4.371,-4.526 -4.371,-7.648 V 89.3666 c 0,-3.122 1.717,-6.088 4.371,-7.649 l 97.092,-56.039 c 1.405,-0.781 2.966,-1.249 4.371,-1.249 z m -8.9759,97.7174 h 13.112 c 0.469,0 0.781,-0.157 1.093,-0.469 7.805,-8.741 8.586,-27.005 8.586,-32.468 0,-0.78 -0.625,-1.561 -1.561,-1.561 h -14.674 -14.673 c -0.78,0 -1.561,0.624 -1.561,1.561 0,5.307 0.781,23.571 8.586,32.468 0.312,0.312 0.624,0.469 1.092,0.469 z m -3.59,-29.659 h 10.302 10.303 c 0.78,0 1.561,0.624 1.561,1.561 0,4.371 -0.781,16.702 -6.088,23.102 -0.468,0.313 -0.78,0.469 -1.249,0.469 h -9.209 c -0.469,0 -0.781,-0.156 -1.093,-0.469 -5.308,-6.243 -5.932,-18.731 -6.088,-23.102 0,-0.78 0.624,-1.561 1.561,-1.561 z m 13.1122,-7.9609 c 0,0 5.62,-3.278 2.185,-9.21 -2.029,-3.122 -2.965,-5.775 -2.185,-6.868 -2.029,2.498 -5.463,5.151 -1.717,10.771 1.249,1.405 1.873,4.37 1.717,5.307 z m -6.2438,0.4682 c 0,0 3.746,-2.185 1.405,-6.244 -1.405,-2.029 -2.029,-3.902 -1.405,-4.527 -1.405,1.717 -3.59,3.434 -1.093,7.337 0.781,0.78 1.093,2.81 1.093,3.434 z m -0.4683,30.7513 h 7.805 c 0.312,0 0.624,-0.156 0.936,-0.468 2.654,-3.122 3.903,-7.961 4.527,-12.176 0,0 -0.156,1.405 -3.902,2.81 -5.151,1.873 -14.205,0.624 -14.205,0.624 0.78,3.278 2.029,6.4 3.902,8.742 0.156,0.312 0.625,0.468 0.937,0.468 z M 62.9854,159.61 v -31.219 h -5.776 l -9.522,14.673 -9.522,-14.673 h -5.775 v 31.375 h 5.463 v -22.322 l 9.678,14.517 h 0.156 l 9.835,-14.673 v 22.322 z m 34.9662,-30.5946 c -2.03,-0.781 -4.215,-1.249 -6.556,-1.249 -2.342,0 -4.527,0.312 -6.557,1.249 -2.029,0.78 -3.746,2.029 -5.151,3.434 -1.561,1.561 -2.653,3.278 -3.434,5.151 -0.78,2.029 -1.249,4.058 -1.249,6.244 v 0.156 c 0,2.185 0.469,4.371 1.249,6.244 0.781,2.029 1.873,3.746 3.278,5.151 1.405,1.405 3.122,2.654 5.151,3.434 2.03,0.781 4.215,1.249 6.556,1.249 2.342,0 4.527,-0.312 6.557,-1.249 2.029,-0.78 3.746,-2.029 5.151,-3.434 1.561,-1.561 2.653,-3.278 3.434,-5.151 0.78,-2.029 1.249,-4.059 1.249,-6.244 v -0.156 c 0,-2.186 -0.469,-4.371 -1.249,-6.244 -0.781,-2.029 -1.873,-3.746 -3.278,-5.151 -1.405,-1.405 -3.122,-2.654 -5.151,-3.434 z m 3.746,15.141 c 0,1.405 -0.312,2.81 -0.781,4.215 -0.624,1.248 -1.248,2.497 -2.185,3.434 -0.936,0.936 -2.029,1.717 -3.278,2.341 -1.249,0.625 -2.654,0.937 -4.215,0.937 -1.404,0 -2.965,-0.312 -4.214,-0.937 -1.249,-0.624 -2.342,-1.405 -3.278,-2.341 -0.937,-1.093 -1.717,-2.186 -2.186,-3.59 -0.468,-1.405 -0.78,-2.81 -0.78,-4.371 v -0.156 c 0,-1.405 0.312,-2.81 0.78,-4.215 0.625,-1.249 1.249,-2.497 2.186,-3.434 0.936,-0.937 2.029,-1.717 3.278,-2.342 1.249,-0.624 2.653,-0.936 4.214,-0.936 1.561,0 2.966,0.312 4.215,0.936 1.249,0.625 2.342,1.405 3.278,2.342 0.937,1.093 1.717,2.185 2.185,3.59 0.469,1.405 0.781,2.81 0.781,4.371 z m 23.1024,-4.683 c 0.624,-1.249 1.249,-2.498 2.185,-3.434 0.937,-0.937 2.03,-1.717 3.278,-2.342 1.249,-0.624 2.498,-0.936 4.059,-0.936 1.873,0 3.434,0.312 4.839,1.092 1.405,0.781 2.654,1.718 3.902,2.81 l 3.591,-4.058 c -0.781,-0.781 -1.561,-1.405 -2.342,-2.03 -0.78,-0.624 -1.717,-1.092 -2.653,-1.561 -1.093,-0.312 -2.03,-0.624 -3.279,-0.936 -1.248,-0.156 -2.497,-0.312 -3.902,-0.312 -2.498,0 -4.527,0.468 -6.556,1.248 -2.029,0.781 -3.746,2.03 -5.151,3.435 -1.405,1.561 -2.498,3.278 -3.278,5.151 -0.781,1.873 -1.249,4.058 -1.249,6.244 v 0.156 c 0,2.185 0.468,4.214 1.249,6.244 0.78,2.029 1.873,3.746 3.278,5.151 1.405,1.405 3.122,2.654 4.995,3.434 1.873,0.781 3.902,1.249 6.244,1.249 1.405,0 2.809,0 4.214,-0.312 1.093,-0.156 2.342,-0.625 3.278,-1.093 0.937,-0.468 1.874,-0.937 2.81,-1.717 0.937,-0.781 1.717,-1.405 2.498,-2.342 l -3.59,-3.59 c -1.405,1.249 -2.81,2.186 -4.059,2.966 -1.249,0.781 -2.966,1.093 -4.839,1.093 -1.405,0 -2.81,-0.469 -4.059,-0.937 -1.248,-0.468 -2.341,-1.405 -3.278,-2.341 -0.936,-1.093 -1.717,-2.186 -2.185,-3.591 -0.468,-1.404 -0.781,-2.809 -0.781,-4.37 v -0.156 c 0,-1.405 0.313,-2.81 0.781,-4.215 z m 32.9366,-11.0828 v 31.219 h 5.463 v -13.112 h 14.986 v 13.112 h 5.463 v -31.219 h -5.463 v 12.956 h -14.986 v -12.956 z m 59.9418,23.7269 3.122,7.493 h 5.775 l -13.736,-31.376 h -4.996 l -13.736,31.376 h 5.619 l 3.278,-7.493 z m -7.337,-17.327 5.307,12.488 h -10.614 z M 28.488,171.161 h 199.024 v -1.717 H 28.488 Z m 114.4193,-60.4095 c 0,0.624 -0.156,1.093 -0.156,1.717 h 84.761 v -1.717 z m -34.8098,0 h -79.61 v 1.717 h 79.766 c 0,-0.624 -0.156,-1.093 -0.156,-1.717 z"
           id="path2274" />
      </g>
      <text
         id="text2609"
         y="145.24564"
         x="104.83973"
         style="font-style:normal;font-weight:normal;font-size:10.5833px;line-height:1.25;font-family:sans-serif;letter-spacing:0px;word-spacing:0px;fill:#8d6748;fill-opacity:1;stroke:none;stroke-width:0.264583;stroke-opacity:1"
         xml:space="preserve"><tspan
           style="font-style:normal;font-variant:normal;font-weight:normal;font-stretch:normal;font-size:5.64444px;font-family:'Liberation Sans';-inkscape-font-specification:'Liberation Sans, Normal';font-variant-ligatures:normal;font-variant-caps:normal;font-variant-numeric:normal;font-feature-settings:normal;text-align:start;writing-mode:lr-tb;text-anchor:start;fill:#8d6748;fill-opacity:1;stroke:none;stroke-width:0.264583;stroke-opacity:1"
           y="145.24564"
           x="104.83973"
           id="tspan2607"
           sodipodi:role="line">MOCHA</tspan></text>
    </g>
  </g>
</svg>
