<?xml version="1.0" encoding="UTF-8" standalone="no"?>
<!-- Created with Inkscape (http://www.inkscape.org/) -->

<svg
   width="172"
   height="45"
   viewBox="0 0 45.508334 11.906249"
   version="1.1"
   id="svg1671"
   inkscape:version="1.3 (0e150ed6c4, 2023-07-21)"
   sodipodi:docname="mysql.svg"
   xmlns:inkscape="http://www.inkscape.org/namespaces/inkscape"
   xmlns:sodipodi="http://sodipodi.sourceforge.net/DTD/sodipodi-0.dtd"
   xmlns="http://www.w3.org/2000/svg"
   xmlns:svg="http://www.w3.org/2000/svg"
   xmlns:rdf="http://www.w3.org/1999/02/22-rdf-syntax-ns#"
   xmlns:cc="http://creativecommons.org/ns#"
   xmlns:dc="http://purl.org/dc/elements/1.1/">
  <defs
     id="defs1665" />
  <sodipodi:namedview
     id="base"
     pagecolor="#ffffff"
     bordercolor="#666666"
     borderopacity="1.0"
     inkscape:pageopacity="0.0"
     inkscape:pageshadow="2"
     inkscape:zoom="2.8"
     inkscape:cx="39.642857"
     inkscape:cy="41.785714"
     inkscape:document-units="mm"
     inkscape:current-layer="layer1"
     showgrid="true"
     fit-margin-top="0"
     fit-margin-left="0"
     fit-margin-right="0"
     fit-margin-bottom="0"
     inkscape:window-width="3440"
     inkscape:window-height="1376"
     inkscape:window-x="0"
     inkscape:window-y="27"
     inkscape:window-maximized="1"
     showguides="true"
     inkscape:guide-bbox="true"
     showborder="true"
     units="px"
     inkscape:showpageshadow="2"
     inkscape:pagecheckerboard="0"
     inkscape:deskcolor="#d1d1d1">
    <sodipodi:guide
       position="22.886458,28.066492"
       orientation="1,0"
       id="guide828"
       inkscape:locked="false"
       inkscape:label=""
       inkscape:color="rgb(0,0,255)" />
    <inkscape:grid
       id="grid1"
       units="px"
       originx="0"
       originy="0"
       spacingx="0.26458334"
       spacingy="0.26458331"
       empcolor="#0099e5"
       empopacity="0.30196078"
       color="#0099e5"
       opacity="0.14901961"
       empspacing="5"
       dotted="false"
       gridanglex="30"
       gridanglez="30"
       visible="true" />
  </sodipodi:namedview>
  <metadata
     id="metadata1668">
    <rdf:RDF>
      <cc:Work
         rdf:about="">
        <dc:format>image/svg+xml</dc:format>
        <dc:type
           rdf:resource="http://purl.org/dc/dcmitype/StillImage" />
      </cc:Work>
    </rdf:RDF>
  </metadata>
  <g
     inkscape:label="Layer 1"
     inkscape:groupmode="layer"
     id="layer1"
     transform="translate(-87.135258,-137.47391)">
    <g
       transform="matrix(0.36430062,0,0,0.36430062,-74.738172,122.61664)"
       id="g2930">
      <path
         style="fill:#5d87a1;stroke-width:0.86229"
         inkscape:connector-curvature="0"
         d="m 473.30515,66.75599 h -4.64873 c -0.16439,-7.230126 -0.61714,-14.027355 -1.35734,-20.396653 h -0.0413 l -7.07775,20.396653 h -3.53932 l -7.03552,-20.396653 h -0.0404 c -0.52191,6.115188 -0.85069,12.914073 -0.98723,20.396653 h -4.23731 c 0.27309,-9.099116 0.95939,-17.629588 2.05622,-25.592245 h 5.76173 l 6.70585,18.804949 h 0.0413 l 6.74717,-18.804949 h 5.51289 c 1.20733,9.326738 1.92058,17.858038 2.13977,25.592245 m 20.16066,-18.881927 c -1.89273,9.464139 -4.39002,16.340829 -7.48917,20.63338 -2.41465,3.304254 -5.06015,4.958037 -7.94102,4.958037 -0.76805,0 -1.71576,-0.213551 -2.83864,-0.637344 v -2.282021 c 0.54886,0.07284 1.19295,0.114225 1.93315,0.114225 1.34566,0 2.42722,-0.34102 3.25186,-1.024716 0.98634,-0.832685 1.47951,-1.768835 1.47951,-2.804312 0,-0.710183 -0.38447,-2.162002 -1.15162,-4.360424 L 475.6084,47.873235 h 4.56698 l 3.66149,10.917614 c 0.82285,2.479019 1.166,4.209779 1.02856,5.195593 2.00233,-4.927412 3.40099,-10.300136 4.19778,-16.114034 h 4.4026 z"
         id="path2846" />
      <path
         style="fill:#f8981d;stroke-width:0.86229"
         inkscape:connector-curvature="0"
         d="M 555.34554,66.75599 H 542.14046 V 41.163745 h 4.44212 v 22.441946 h 8.76296 z m -16.66176,0.618306 -5.10596,-2.321752 c 0.45274,-0.342676 0.88573,-0.713494 1.27559,-1.14308 2.17031,-2.349067 3.25276,-5.823004 3.25276,-10.424294 0,-8.466738 -3.60579,-12.702176 -10.82008,-12.702176 -3.53753,0 -6.29712,1.074379 -8.27069,3.223966 -2.16851,2.350722 -3.25097,5.812243 -3.25097,10.388701 0,4.498653 0.95939,7.798769 2.87907,9.89207 1.75618,1.896305 4.40349,2.845698 7.94371,2.845698 1.32051,0 2.53232,-0.148989 3.63634,-0.449451 l 6.64745,3.565814 z m -16.54049,-5.739404 c -1.12467,-1.667026 -1.68701,-4.34387 -1.68701,-8.034669 0,-6.443792 2.12449,-9.669413 6.37796,-9.669413 2.22331,0 3.85283,0.771434 4.89487,2.310991 1.12288,1.669509 1.68791,4.322349 1.68791,7.961829 0,6.496767 -2.12629,9.745564 -6.37707,9.745564 -2.2242,8.28e-4 -3.85372,-0.768123 -4.89666,-2.314302 m -8.31471,-1.972455 c 0,2.17028 -0.86417,3.950703 -2.59071,5.34541 -1.72834,1.388913 -4.04596,2.085024 -6.95018,2.085024 -2.71648,0 -5.35031,-0.799576 -7.8997,-2.390452 l 1.19385,-2.197594 c 2.19366,1.0123 4.17981,1.515553 5.96295,1.515553 1.67354,0 2.98147,-0.341848 3.93008,-1.01975 0.94771,-0.680385 1.51275,-1.634745 1.51275,-2.841559 0,-1.52052 -1.15073,-2.820039 -3.26175,-3.908489 -1.94662,-0.984986 -5.83988,-3.044351 -5.83988,-3.044351 -2.11012,-1.417055 -3.16652,-2.938402 -3.16652,-5.444736 0,-2.074264 0.78781,-3.748739 2.36433,-5.022599 1.57833,-1.278826 3.61478,-1.916169 6.11117,-1.916169 2.57814,0 4.92182,0.636516 7.03283,1.896304 l -1.07078,2.198422 c -1.80559,-0.706872 -3.58783,-1.060308 -5.34581,-1.060308 -1.42381,0 -2.52334,0.315361 -3.2878,0.948566 -0.77074,0.630722 -1.24594,1.437748 -1.24594,2.4277 0,1.51307 1.17498,2.829143 3.34349,3.939114 1.97267,0.986641 5.96295,3.081598 5.96295,3.081598 2.16401,1.414572 3.24467,2.921849 3.24467,5.408316"
         id="path2848" />
      <path
         style="fill:#f8981d;stroke-width:0.86229"
         inkscape:connector-curvature="0"
         d="m 564.11839,66.751851 h 0.69529 v -3.1354 h -1.04293 l -0.8507,2.139654 -0.92435,-2.139654 h -1.00431 v 3.1354 h 0.65666 v -2.385486 h 0.0368 l 0.96837,2.385486 h 0.50036 l 0.96478,-2.385486 z m -5.60093,0 h 0.73571 v -2.604004 h 0.96298 v -0.532223 h -2.7021 v 0.532223 h 1.00161 z"
         id="path2852" />
    </g>
  </g>
</svg>
