<?xml version="1.0" encoding="UTF-8" standalone="no"?>
<svg
   fill="none"
   viewBox="0 0 172 45"
   version="1.1"
   id="svg2"
   sodipodi:docname="next.svg"
   width="172"
   height="45"
   inkscape:version="1.3 (0e150ed6c4, 2023-07-21)"
   xmlns:inkscape="http://www.inkscape.org/namespaces/inkscape"
   xmlns:sodipodi="http://sodipodi.sourceforge.net/DTD/sodipodi-0.dtd"
   xmlns="http://www.w3.org/2000/svg"
   xmlns:svg="http://www.w3.org/2000/svg">
  <defs
     id="defs2" />
  <sodipodi:namedview
     id="namedview2"
     pagecolor="#ffffff"
     bordercolor="#000000"
     borderopacity="0.25"
     inkscape:showpageshadow="2"
     inkscape:pageopacity="0.0"
     inkscape:pagecheckerboard="0"
     inkscape:deskcolor="#d1d1d1"
     showgrid="true"
     inkscape:zoom="2.9486712"
     inkscape:cx="216.19908"
     inkscape:cy="15.939383"
     inkscape:window-width="2085"
     inkscape:window-height="1376"
     inkscape:window-x="1355"
     inkscape:window-y="27"
     inkscape:window-maximized="0"
     inkscape:current-layer="svg2">
    <inkscape:grid
       id="grid2"
       units="px"
       originx="0"
       originy="0"
       spacingx="1"
       spacingy="1"
       empcolor="#0099e5"
       empopacity="0.30196078"
       color="#0099e5"
       opacity="0.14901961"
       empspacing="5"
       dotted="false"
       gridanglex="30"
       gridanglez="30"
       visible="true" />
  </sodipodi:namedview>
  <g
     id="g2"
     transform="matrix(0.43654534,0,0,0.43654534,0,4.3391358)">
    <path
       fill="#000000"
       d="m 262,0 h 68.5 V 12.7 H 303.3 V 79.3 H 289.7 V 12.7 H 262 Z M 149,0 V 12.7 H 94 v 20.4 h 44.3 V 45.7 H 94 v 21 h 55 V 79.3 H 80.5 V 0 h 68.7 z m 34.3,0 h -17.8 l 63.8,79.4 h 17.9 l -32,-39.7 32,-39.6 h -17.9 l -23,28.6 -23,-28.6 z m 18.3,56.7 -9,-11 -27.1,33.7 h 17.8 z"
       id="path1" />
    <path
       fill="#000000"
       d="M 81,79.3 17,0 H 0 V 79.3 H 13.6 V 17 l 50.2,62.3 z m 252.60001,-0.4 c -1.00002,0 -1.8,-0.399999 -2.50002,-0.999999 -0.7,-0.600002 -1.1,-1.600001 -1.1,-2.6 C 329.99999,74.299999 330.3,73.5 331,72.799999 331.7,72.100001 332.59999,71.8 333.60001,71.8 c 0.99998,0 1.79999,0.300001 2.49999,0.999999 a 3.4,3.4 0 0 1 0.6,4.3 A 3.7,3.7 0 0 1 333.69999,78.9 Z M 356.8,45.400001 h 6 v 23.299998 c 0,2.100002 -0.40001,4.000002 -1.30001,5.500002 A 9.1000001,9.1000001 0 0 1 357.7,77.699999 c -1.6,0.800002 -3.5,1.3 -5.7,1.3 -2,0 -3.70001,-0.4 -5.3,-0.999999 -1.6,-0.6 -2.80001,-1.800001 -3.70001,-3.2 -0.9,-1.3 -1.39999,-3 -1.39999,-5 h 5.99999 c 0.10011,0.800001 0.30002,1.600001 0.7,2.2 0.4,0.6 1.00001,1.199999 1.60002,1.5 0.69999,0.4 1.5,0.500001 2.4,0.500001 0.99999,0 1.8,-0.200002 2.39998,-0.600002 A 4,4 0 0 0 356.30001,71.6 C 356.6,70.800001 356.8,69.8 356.8,68.6 V 45.499999 Z m 30.9,9.099998 a 4.3999999,4.3999999 0 0 0 -2,-3.299998 A 7.5,7.5 0 0 0 381.40001,50.1 c -1.3,0 -2.4,0.200002 -3.3,0.500001 -0.9,0.4 -1.60002,0.999999 -2,1.599999 A 3.5,3.5 0 0 0 375.8,56.200001 C 376.10001,56.7 376.49999,57.099999 377.1,57.4 l 1.8,0.999999 1.99999,0.500001 3.20002,0.8 c 1.3,0.3 2.49999,0.7 3.7,1.200001 A 13,13 0 0 1 391,62.699999 8.1,8.1 0 0 1 394.00001,69.2 c 0,2.000001 -0.50002,3.700001 -1.50001,5.099999 A 10,10 0 0 1 388.1,77.8 c -1.79999,0.799999 -4.10001,1.199999 -6.8,1.199999 -2.60001,0 -4.9,-0.4 -6.80001,-1.199999 C 372.5,77.000001 371.1,75.799999 370,74.299999 a 10,10 0 0 1 -1.7,-5.6 h 5.99999 A 4.9999999,4.9999999 0 0 0 377.8,73.3 c 1.00001,0.4 2.2,0.6 3.40001,0.6 1.3,0 2.49999,-0.200002 3.5,-0.6 0.99999,-0.399999 1.8,-0.999999 2.39998,-1.7 A 4,4 0 0 0 387.9,69.2 c 0,-0.9 -0.19998,-1.600001 -0.7,-2.200001 a 11,11 0 0 0 -2.10001,-1.399998 L 381.9,64.599999 378.10001,63.6 C 375.3,62.899999 373.1,61.9 371.50001,60.4 a 7.2,7.2 0 0 1 -2.4,-5.699999 8.0000001,8.0000001 0 0 1 1.69998,-5 A 10,10 0 0 1 375.1,46.2 c 2,-0.799999 4,-1.199999 6.4,-1.199999 2.29999,0 4.4,0.4 6.2,1.199999 1.79999,0.799999 3.20001,2.000001 4.30001,3.4 0.99999,1.400001 1.49998,2.999999 1.49998,5 H 387.7 Z"
       id="path2"
       style="stroke-width:0.999999" />
  </g>
</svg>
