<?xml version="1.0" encoding="UTF-8" standalone="no"?>
<!-- Created with Inkscape (http://www.inkscape.org/) -->

<svg
   xmlns:dc="http://purl.org/dc/elements/1.1/"
   xmlns:cc="http://creativecommons.org/ns#"
   xmlns:rdf="http://www.w3.org/1999/02/22-rdf-syntax-ns#"
   xmlns:svg="http://www.w3.org/2000/svg"
   xmlns="http://www.w3.org/2000/svg"
   xmlns:sodipodi="http://sodipodi.sourceforge.net/DTD/sodipodi-0.dtd"
   xmlns:inkscape="http://www.inkscape.org/namespaces/inkscape"
   width="172"
   height="46.182049"
   viewBox="0 0 45.508334 12.219001"
   version="1.1"
   id="svg1671"
   inkscape:version="0.92.3 (unknown)"
   sodipodi:docname="nodemon.svg">
  <defs
     id="defs1665" />
  <sodipodi:namedview
     id="base"
     pagecolor="#ffffff"
     bordercolor="#666666"
     borderopacity="1.0"
     inkscape:pageopacity="0.0"
     inkscape:pageshadow="2"
     inkscape:zoom="2.8"
     inkscape:cx="23.493622"
     inkscape:cy="37.462472"
     inkscape:document-units="mm"
     inkscape:current-layer="layer1"
     showgrid="false"
     fit-margin-top="0"
     fit-margin-left="0"
     fit-margin-right="0"
     fit-margin-bottom="0"
     inkscape:window-width="1920"
     inkscape:window-height="1043"
     inkscape:window-x="0"
     inkscape:window-y="0"
     inkscape:window-maximized="1"
     showguides="true"
     inkscape:guide-bbox="true"
     showborder="false"
     units="px">
    <sodipodi:guide
       position="22.886001,30.470583"
       orientation="1,0"
       id="guide828"
       inkscape:locked="false"
       inkscape:label=""
       inkscape:color="rgb(0,0,255)" />
  </sodipodi:namedview>
  <metadata
     id="metadata1668">
    <rdf:RDF>
      <cc:Work
         rdf:about="">
        <dc:format>image/svg+xml</dc:format>
        <dc:type
           rdf:resource="http://purl.org/dc/dcmitype/StillImage" />
        <dc:title></dc:title>
      </cc:Work>
    </rdf:RDF>
  </metadata>
  <g
     inkscape:label="Layer 1"
     inkscape:groupmode="layer"
     id="layer1"
     transform="translate(-87.107165,-137.43216)">
    <g
       id="g827"
       transform="translate(5.1026789)">
      <g
         style="stroke:none;stroke-opacity:1"
         transform="matrix(0.16992984,0,0,0.26462838,71.63582,87.926149)"
         id="g1648">
        <rect
           style="fill:none;fill-opacity:0;stroke:none;stroke-width:0.32100001;stroke-miterlimit:4;stroke-dasharray:none;stroke-opacity:1"
           id="rect1755-5-1"
           width="208.32918"
           height="45.853184"
           x="91.205986"
           y="187.23798" />
      </g>
      <text
         id="text2609"
         y="145.20981"
         x="98.084679"
         style="font-style:normal;font-weight:normal;font-size:10.58333302px;line-height:1.25;font-family:sans-serif;letter-spacing:0px;word-spacing:0px;fill:#4f4d3f;fill-opacity:1;stroke:none;stroke-width:0.26458332"
         xml:space="preserve"><tspan
           style="font-style:normal;font-variant:normal;font-weight:normal;font-stretch:normal;font-size:5.64444447px;font-family:Roboto;-inkscape-font-specification:'Roboto, Normal';font-variant-ligatures:normal;font-variant-caps:normal;font-variant-numeric:normal;font-feature-settings:normal;text-align:start;writing-mode:lr-tb;text-anchor:start;fill:#4f4d3f;fill-opacity:1;stroke-width:0.26458332"
           y="145.20981"
           x="98.084679"
           id="tspan2607"
           sodipodi:role="line">nodemon</tspan></text>
      <g
         transform="matrix(0.03665835,0,0,0.03665835,87.572522,138.05771)"
         id="g2334">
        <path
           style="fill:#76d04b"
           inkscape:connector-curvature="0"
           d="m 120.94663,289.19021 c 4.25839,2.46161 9.51116,2.46161 13.76955,0 L 248.79761,223.36 c 4.26603,-2.4597 6.89194,-7.00752 6.89194,-11.93457 V 79.663761 c 0,-4.923224 -2.62686,-9.468179 -6.88525,-11.933612 L 134.72478,1.8464478 c -4.26699,-2.46161198 -9.51976,-2.46161198 -13.78579,0 L 6.8890746,67.730149 C 2.6268657,70.194627 0,74.741493 0,79.663761 V 211.43307 c 0,4.91941 2.6268657,9.46627 6.8919403,11.92597 L 120.94567,289.18925"
           id="path2330" />
        <path
           style="fill:#4f4d3f"
           inkscape:connector-curvature="0"
           d="m 201.70125,114.11105 -5.08752,-2.92777 c 7.82328,-11.539101 12.49815,-28.887877 6.63594,-54.825071 0,0 -13.20119,36.998686 -39.73922,35.773134 L 132.43701,74.249552 c -1.17206,-0.695403 -2.48549,-1.053612 -3.81325,-1.10806 h -0.71642 c -1.32489,0.0554 -2.63641,0.413612 -3.82471,1.10806 L 93.006328,92.131343 C 66.471164,93.360716 53.265194,56.358209 53.265194,56.358209 47.400119,82.294448 52.082627,99.643224 59.904,111.18328 l -5.086567,2.92872 c -2.583881,1.48919 -4.190567,4.25457 -4.190567,7.27116 l 0.152836,107.33183 c 0,1.49779 0.775641,2.88477 2.090029,3.61361 1.283821,0.77564 2.873314,0.77564 4.155224,0 l 41.164418,-23.57111 c 2.604897,-1.54746 4.188657,-4.27654 4.188657,-7.2597 v -50.14257 c 0,-2.98985 1.58376,-5.76191 4.17719,-7.24346 l 17.52836,-10.09385 c 1.30579,-0.76036 2.73481,-1.13003 4.19343,-1.13003 1.42615,0 2.89242,0.36967 4.16191,1.12907 l 17.52263,10.09386 c 2.59439,1.48059 4.18388,4.25361 4.18388,7.2425 v 50.14257 c 0,2.98317 1.60478,5.73325 4.19344,7.2597 l 41.15391,23.57111 c 1.29146,0.77373 2.90388,0.77373 4.18388,0 1.27522,-0.72884 2.07761,-2.11678 2.07761,-3.61457 L 205.888,121.3803 c -0.003,-3.01851 -1.58567,-5.78388 -4.18579,-7.27117 z"
           id="path2332" />
      </g>
    </g>
  </g>
</svg>
