<?xml version="1.0" encoding="UTF-8" standalone="no"?>
<!-- Created with Inkscape (http://www.inkscape.org/) -->

<svg
   width="172"
   height="45"
   viewBox="0 0 172 44.999999"
   version="1.1"
   id="svg1717"
   inkscape:version="1.3 (0e150ed6c4, 2023-07-21)"
   sodipodi:docname="node-light.new.svg"
   inkscape:export-filename="/home/klequis/dev/cbsite/src/ui/media/react-router.png"
   inkscape:export-xdpi="90"
   inkscape:export-ydpi="90"
   xmlns:inkscape="http://www.inkscape.org/namespaces/inkscape"
   xmlns:sodipodi="http://sodipodi.sourceforge.net/DTD/sodipodi-0.dtd"
   xmlns="http://www.w3.org/2000/svg"
   xmlns:svg="http://www.w3.org/2000/svg"
   xmlns:rdf="http://www.w3.org/1999/02/22-rdf-syntax-ns#"
   xmlns:cc="http://creativecommons.org/ns#"
   xmlns:dc="http://purl.org/dc/elements/1.1/">
  <defs
     id="defs1711">
    <linearGradient
       id="linearGradient-1-8"
       y2="105.42175"
       x2="32.862125"
       y1="21.345526"
       x1="79.823227"
       gradientTransform="scale(0.93681241,1.0674496)"
       gradientUnits="userSpaceOnUse">
      <stop
         id="stop1421"
         offset="0%"
         stop-color="#41873F" />
      <stop
         id="stop1423"
         offset="32.88%"
         stop-color="#418B3D" />
      <stop
         id="stop1425"
         offset="63.52%"
         stop-color="#419637" />
      <stop
         id="stop1427"
         offset="93.19%"
         stop-color="#3FA92D" />
      <stop
         id="stop1429"
         offset="100%"
         stop-color="#3FAE2A" />
    </linearGradient>
    <mask
       id="mask-3-69"
       fill="#ffffff">
      <path
         d="m 57.903386,1.8492099 c -1.84921,-1.04018056 -4.045147,-1.04018056 -5.894357,0 L 3.351693,29.934086 c -1.8492099,1.04018 -2.88939052,3.004966 -2.88939052,5.085327 V 91.30474 c 0,2.080362 1.15575622,4.045147 2.88939052,5.085328 l 48.657336,28.084872 c 1.84921,1.04018 4.045147,1.04018 5.894357,0 L 106.56072,96.390068 c 1.84921,-1.040181 2.88939,-3.004966 2.88939,-5.085328 V 35.019413 c 0,-2.080361 -1.15575,-4.045147 -2.88939,-5.085327 z"
         id="use1503"
         inkscape:connector-curvature="0" />
    </mask>
    <linearGradient
       id="linearGradient-4-6"
       y2="-19.865484"
       x2="184.67371"
       y1="64.593353"
       x1="51.368568"
       gradientTransform="scale(0.92601891,1.0798916)"
       gradientUnits="userSpaceOnUse">
      <stop
         id="stop1433"
         offset="13.76%"
         stop-color="#41873F" />
      <stop
         id="stop1435"
         offset="40.32%"
         stop-color="#54A044" />
      <stop
         id="stop1437"
         offset="71.36%"
         stop-color="#66B848" />
      <stop
         id="stop1439"
         offset="90.81%"
         stop-color="#6CC04A" />
    </linearGradient>
    <mask
       id="mask5"
       fill="#ffffff">
      <path
         d="m 57.903386,1.8492099 c -1.84921,-1.04018056 -4.045147,-1.04018056 -5.894357,0 L 3.351693,29.934086 c -1.8492099,1.04018 -2.88939052,3.004966 -2.88939052,5.085327 V 91.30474 c 0,2.080362 1.15575622,4.045147 2.88939052,5.085328 l 48.657336,28.084872 c 1.84921,1.04018 4.045147,1.04018 5.894357,0 L 106.56072,96.390068 c 1.84921,-1.040181 2.88939,-3.004966 2.88939,-5.085328 V 35.019413 c 0,-2.080361 -1.15575,-4.045147 -2.88939,-5.085327 z"
         id="use5"
         inkscape:connector-curvature="0" />
    </mask>
    <linearGradient
       id="linearGradient-5-0"
       y2="1.3971804"
       x2="60.600269"
       y1="1.3971804"
       x1="5.4425087"
       gradientTransform="scale(1.6329932,0.61237242)"
       gradientUnits="userSpaceOnUse">
      <stop
         id="stop1442"
         offset="9.191646%"
         stop-color="#6CC04A" />
      <stop
         id="stop1444"
         offset="28.64%"
         stop-color="#66B848" />
      <stop
         id="stop1446"
         offset="59.68%"
         stop-color="#54A044" />
      <stop
         id="stop1448"
         offset="86.24%"
         stop-color="#41873F" />
    </linearGradient>
    <linearGradient
       id="linearGradient-6-0"
       y2="66.989319"
       x2="120.2794"
       y1="66.989319"
       x1="-1.421301"
       gradientTransform="scale(0.92514088,1.0809165)"
       gradientUnits="userSpaceOnUse">
      <stop
         id="stop1451"
         offset="9.191646%"
         stop-color="#6CC04A" />
      <stop
         id="stop1453"
         offset="28.64%"
         stop-color="#66B848" />
      <stop
         id="stop1455"
         offset="59.68%"
         stop-color="#54A044" />
      <stop
         id="stop1457"
         offset="86.24%"
         stop-color="#41873F" />
    </linearGradient>
    <linearGradient
       id="linearGradient-7-9"
       y2="68.362541"
       x2="169.63257"
       y1="68.362541"
       x1="118.0377"
       gradientTransform="scale(0.65464693,1.527541)"
       gradientUnits="userSpaceOnUse">
      <stop
         id="stop1460"
         offset="9.191646%"
         stop-color="#6CC04A" />
      <stop
         id="stop1462"
         offset="28.64%"
         stop-color="#66B848" />
      <stop
         id="stop1464"
         offset="59.68%"
         stop-color="#54A044" />
      <stop
         id="stop1466"
         offset="86.24%"
         stop-color="#41873F" />
    </linearGradient>
    <linearGradient
       id="linearGradient-8-1"
       y2="150.75189"
       x2="87.896973"
       y1="150.75189"
       x1="-1.0386474"
       gradientTransform="scale(1.2659753,0.7899048)"
       gradientUnits="userSpaceOnUse">
      <stop
         id="stop1469"
         offset="9.191646%"
         stop-color="#6CC04A" />
      <stop
         id="stop1471"
         offset="28.64%"
         stop-color="#66B848" />
      <stop
         id="stop1473"
         offset="59.68%"
         stop-color="#54A044" />
      <stop
         id="stop1475"
         offset="86.24%"
         stop-color="#41873F" />
    </linearGradient>
    <linearGradient
       id="linearGradient-9-2"
       y2="216.51357"
       x2="46.004009"
       y1="37.182369"
       x1="100.85383"
       gradientTransform="scale(1.2659753,0.7899048)"
       gradientUnits="userSpaceOnUse">
      <stop
         id="stop1478"
         offset="0%"
         stop-color="#41873F" />
      <stop
         id="stop1480"
         offset="32.88%"
         stop-color="#418B3D" />
      <stop
         id="stop1482"
         offset="63.52%"
         stop-color="#419637" />
      <stop
         id="stop1484"
         offset="93.19%"
         stop-color="#3FA92D" />
      <stop
         id="stop1486"
         offset="100%"
         stop-color="#3FAE2A" />
    </linearGradient>
  </defs>
  <sodipodi:namedview
     id="base"
     pagecolor="#ffffff"
     bordercolor="#666666"
     borderopacity="1.0"
     inkscape:pageopacity="0.0"
     inkscape:pageshadow="2"
     inkscape:zoom="5.6"
     inkscape:cx="76.071429"
     inkscape:cy="12.5"
     inkscape:document-units="px"
     inkscape:current-layer="layer1"
     showgrid="true"
     showborder="true"
     showguides="true"
     inkscape:guide-bbox="true"
     inkscape:window-width="3440"
     inkscape:window-height="1376"
     inkscape:window-x="0"
     inkscape:window-y="27"
     inkscape:window-maximized="1"
     gridtolerance="1"
     guidetolerance="1"
     fit-margin-top="0"
     fit-margin-left="0"
     fit-margin-right="0"
     fit-margin-bottom="0"
     units="px"
     inkscape:showpageshadow="2"
     inkscape:pagecheckerboard="0"
     inkscape:deskcolor="#d1d1d1">
    <sodipodi:guide
       position="207.32098,59.550482"
       orientation="1,0"
       id="guide2360"
       inkscape:locked="false" />
    <sodipodi:guide
       position="86.499999,65.357142"
       orientation="1,0"
       id="guide2630"
       inkscape:locked="false"
       inkscape:label=""
       inkscape:color="rgb(255,0,0)" />
    <sodipodi:guide
       position="170,65.535712"
       orientation="1,0"
       id="guide1933"
       inkscape:locked="false" />
    <inkscape:grid
       id="grid1"
       units="px"
       originx="0"
       originy="0"
       spacingx="1"
       spacingy="0.99999998"
       empcolor="#0099e5"
       empopacity="0.30196078"
       color="#0099e5"
       opacity="0.14901961"
       empspacing="5"
       dotted="false"
       gridanglex="30"
       gridanglez="30"
       visible="true" />
  </sodipodi:namedview>
  <metadata
     id="metadata1714">
    <rdf:RDF>
      <cc:Work
         rdf:about="">
        <dc:format>image/svg+xml</dc:format>
        <dc:type
           rdf:resource="http://purl.org/dc/dcmitype/StillImage" />
      </cc:Work>
    </rdf:RDF>
  </metadata>
  <g
     inkscape:label="Layer 1"
     inkscape:groupmode="layer"
     id="layer1"
     transform="translate(-1.0718819,-1077.4371)">
    <g
       transform="matrix(1.2759015,0,0,1.3670373,-50.853591,1072.8326)"
       id="g1051">
      <path
         style="fill:#539e43;stroke:none;stroke-width:0.176932;stroke-opacity:0.952862"
         inkscape:connector-curvature="0"
         d="m 152.81102,35.945584 c -0.32465,0 -0.62765,-0.0773 -0.90901,-0.21253 l -2.87852,-1.52635 c -0.43286,-0.21253 -0.21643,-0.28981 -0.0866,-0.32846 0.58436,-0.17388 0.69258,-0.21252 1.29858,-0.52166 0.0649,-0.0386 0.1515,-0.0193 0.21643,0.0193 l 2.20759,1.17857 c 0.0866,0.0387 0.19478,0.0387 0.25971,0 l 8.63556,-4.46311 c 0.0866,-0.0386 0.12985,-0.11593 0.12985,-0.21253 v -8.90691 c 0,-0.0966 -0.0433,-0.17389 -0.12985,-0.21253 l -8.63556,-4.44379 c -0.0866,-0.0386 -0.19478,-0.0386 -0.25971,0 l -8.63556,4.44379 c -0.0866,0.0386 -0.12986,0.13525 -0.12986,0.21253 v 8.90691 c 0,0.0773 0.0433,0.17389 0.12986,0.21253 l 2.35909,1.21721 c 1.27694,0.57963 2.07773,-0.0966 2.07773,-0.77283 v -8.79098 c 0,-0.11593 0.10821,-0.23185 0.25971,-0.23185 h 1.10379 c 0.12986,0 0.25972,0.0966 0.25972,0.23185 v 8.79098 c 0,1.52635 -0.93065,2.4151 -2.55387,2.4151 -0.49779,0 -0.88736,0 -1.99116,-0.48302 l -2.27251,-1.15925 c -0.56272,-0.28981 -0.90901,-0.83079 -0.90901,-1.41042 v -8.90691 c 0,-0.57962 0.34629,-1.12061 0.90901,-1.41042 l 8.63555,-4.46311 c 0.54108,-0.27049 1.27694,-0.27049 1.81801,0 l 8.63556,4.46311 c 0.56271,0.28981 0.909,0.8308 0.909,1.41042 v 8.90691 c 0,0.57963 -0.34629,1.12061 -0.909,1.41042 l -8.63556,4.46312 c -0.28136,0.11592 -0.606,0.17389 -0.909,0.17389 z m 2.66208,-6.12471 c -3.78752,0 -4.56667,-1.54567 -4.56667,-2.85949 0,-0.11592 0.10822,-0.23185 0.25972,-0.23185 h 1.12543 c 0.12986,0 0.23808,0.0773 0.23808,0.19321 0.17314,1.02401 0.67093,1.52635 2.96509,1.52635 1.81801,0 2.59716,-0.3671 2.59716,-1.23654 0,-0.50234 -0.21643,-0.86943 -3.05166,-1.1206 -2.35909,-0.21253 -3.83081,-0.67623 -3.83081,-2.35715 0,-1.56499 1.47172,-2.49239 3.93902,-2.49239 2.7703,0 4.13381,0.85012 4.30696,2.70492 0,0.058 -0.0217,0.11593 -0.0649,0.17389 -0.0433,0.0386 -0.10822,0.0773 -0.17315,0.0773 h -1.12543 c -0.10822,0 -0.21643,-0.0773 -0.23808,-0.17388 -0.25971,-1.06265 -0.93064,-1.41043 -2.70537,-1.41043 -1.99115,0 -2.22923,0.61827 -2.22923,1.08197 0,0.56031 0.28136,0.73419 2.96509,1.04333 2.66209,0.30913 3.91738,0.75351 3.91738,2.4151 -0.0216,1.70024 -1.57993,2.66628 -4.3286,2.66628 z"
         id="path1491" />
      <path
         style="fill:#333333;stroke:none;stroke-width:0.176932;stroke-opacity:0.952862"
         inkscape:connector-curvature="0"
         d="m 61.257956,20.872904 c 0,-0.34777 -0.21643,-0.67622 -0.56272,-0.85011 l -9.17663,-4.71429 c -0.1515,-0.0773 -0.32464,-0.11592 -0.49779,-0.13525 h -0.0866 c -0.17314,0 -0.34629,0.058 -0.49779,0.13525 l -9.17663,4.71429 c -0.34628,0.17389 -0.56271,0.50234 -0.56271,0.85011 l 0.0216,12.67448 c 0,0.17388 0.10821,0.34777 0.28136,0.42505 0.17314,0.0966 0.38957,0.0966 0.54107,0 l 5.45404,-2.7822 c 0.34629,-0.17388 0.56271,-0.50234 0.56271,-0.85011 v -5.9315 c 0,-0.34778 0.21643,-0.67623 0.56272,-0.85012 l 2.3158,-1.19789 c 0.17315,-0.0966 0.36793,-0.13525 0.56272,-0.13525 0.19479,0 0.38957,0.0386 0.54108,0.13525 l 2.31579,1.19789 c 0.34629,0.17389 0.56272,0.50234 0.56272,0.85012 v 5.9315 c 0,0.34777 0.21643,0.67623 0.56272,0.85011 l 5.45403,2.7822 c 0.17315,0.0966 0.38958,0.0966 0.56272,0 0.17315,-0.0773 0.28136,-0.25117 0.28136,-0.42505 z"
         id="path1493" />
      <path
         style="fill:#333333;stroke:none;stroke-width:0.176932;stroke-opacity:0.952862"
         inkscape:connector-curvature="0"
         d="m 105.36637,3.4261839 c -0.17314,-0.0773 -0.38957,-0.0773 -0.54107,0 -0.17315,0.0966 -0.28136,0.25117 -0.28136,0.42506 V 16.409794 c 0,0.11592 -0.0649,0.23185 -0.19479,0.30913 -0.12986,0.058 -0.25972,0.058 -0.38957,0 l -2.29416,-1.17857 c -0.34629,-0.17389 -0.7575,-0.17389 -1.10379,0 l -9.176634,4.73361 c -0.34629,0.17389 -0.56272,0.50234 -0.56272,0.85011 v 9.4479 c 0,0.34777 0.21643,0.67623 0.56272,0.85011 l 9.176634,4.73361 c 0.34629,0.17389 0.7575,0.17389 1.10379,0 l 9.17663,-4.73361 c 0.34629,-0.17388 0.56271,-0.50234 0.56271,-0.85011 V 7.0198639 c 0,-0.3671 -0.21642,-0.69555 -0.56271,-0.86944 z m -0.84408,24.0351301 c 0,0.0966 -0.0433,0.17389 -0.12985,0.21253 l -3.13824,1.62295 c -0.0866,0.0386 -0.19478,0.0386 -0.28136,0 l -3.138234,-1.62295 c -0.0866,-0.0386 -0.12986,-0.13525 -0.12986,-0.21253 v -3.2459 c 0,-0.0966 0.0433,-0.17389 0.12986,-0.21253 l 3.138234,-1.62295 c 0.0866,-0.0386 0.19479,-0.0386 0.28136,0 l 3.13824,1.62295 c 0.0866,0.0386 0.12985,0.13525 0.12985,0.21253 z"
         id="path1495" />
      <g
         style="fill:none;stroke:none;stroke-opacity:0.952862"
         transform="matrix(0.18726259,0,0,0.16717057,115.75501,15.153934)"
         id="g1501">
        <path
           style="fill:#333333;stroke:none;stroke-opacity:0.952862"
           inkscape:connector-curvature="0"
           d="m 107.6009,53.742664 c 1.84921,-1.040181 2.88939,-3.004966 2.88939,-5.085328 V 34.903838 c 0,-2.080362 -1.15575,-4.045147 -2.88939,-5.085328 L 58.943567,1.6180587 c -1.84921,-1.0401806 -4.045147,-1.0401806 -5.894357,0 L 4.0451467,29.934086 c -1.8492099,1.04018 -3.0049661,3.004966 -3.0049661,5.085327 v 56.516479 c 0,2.080361 1.1557562,4.045146 3.0049661,5.085327 L 52.702483,124.35937 c 1.84921,1.04018 4.045147,1.04018 5.778781,0 l 29.471783,-16.41174 c 0.924605,-0.4623 1.502483,-1.50248 1.502483,-2.54266 0,-1.04018 -0.577878,-2.08036 -1.502483,-2.54267 L 38.717833,74.546275 C 37.793228,73.968397 37.21535,73.043792 37.21535,72.003612 v -17.68307 c 0,-1.040181 0.577878,-2.080361 1.502483,-2.542664 L 54.08939,42.994131 c 0.924605,-0.577878 2.080362,-0.577878 3.004967,0 l 15.371557,8.783747 c 0.924605,0.577878 1.502483,1.502483 1.502483,2.542664 v 13.869074 c 0,1.040181 0.577878,2.080361 1.502483,2.542664 0.924605,0.577878 2.080362,0.577878 3.004967,0 z"
           id="path1497" />
        <path
           style="fill:#539e43;stroke:none;stroke-opacity:0.952862"
           inkscape:connector-curvature="0"
           d="m 55.245147,51.084424 c 0.346727,-0.231151 0.809029,-0.231151 1.155756,0 l 9.361625,5.432055 c 0.346727,0.231151 0.577878,0.577878 0.577878,1.04018 v 10.864108 c 0,0.462303 -0.231151,0.80903 -0.577878,1.040181 l -9.361625,5.432054 c -0.346727,0.231152 -0.809029,0.231152 -1.155756,0 L 45.883521,69.460948 C 45.536795,69.229797 45.305643,68.88307 45.305643,68.420767 V 57.556659 c 0,-0.462302 0.231152,-0.809029 0.577878,-1.04018 z"
           id="path1499" />
      </g>
      <g
         style="fill:none;stroke:none;stroke-opacity:0.952862"
         transform="matrix(0.18726259,0,0,0.16717057,65.759696,15.153934)"
         id="g1534">
        <mask
           id="mask6"
           fill="#ffffff">
          <path
             d="m 57.903386,1.8492099 c -1.84921,-1.04018056 -4.045147,-1.04018056 -5.894357,0 L 3.351693,29.934086 c -1.8492099,1.04018 -2.88939052,3.004966 -2.88939052,5.085327 V 91.30474 c 0,2.080362 1.15575622,4.045147 2.88939052,5.085328 l 48.657336,28.084872 c 1.84921,1.04018 4.045147,1.04018 5.894357,0 L 106.56072,96.390068 c 1.84921,-1.040181 2.88939,-3.004966 2.88939,-5.085328 V 35.019413 c 0,-2.080361 -1.15575,-4.045147 -2.88939,-5.085327 z"
             id="use6"
             inkscape:connector-curvature="0" />
        </mask>
        <path
           d="m 57.903386,1.8492099 c -1.84921,-1.04018056 -4.045147,-1.04018056 -5.894357,0 L 3.351693,29.934086 c -1.8492099,1.04018 -2.88939052,3.004966 -2.88939052,5.085327 V 91.30474 c 0,2.080362 1.15575622,4.045147 2.88939052,5.085328 l 48.657336,28.084872 c 1.84921,1.04018 4.045147,1.04018 5.894357,0 L 106.56072,96.390068 c 1.84921,-1.040181 2.88939,-3.004966 2.88939,-5.085328 V 35.019413 c 0,-2.080361 -1.15575,-4.045147 -2.88939,-5.085327 z"
           id="use1506"
           inkscape:connector-curvature="0"
           style="fill:url(#linearGradient-1-8);stroke:none;stroke-opacity:0.952862" />
        <g
           style="stroke:none;stroke-opacity:0.952862"
           mask="url(#mask-3-69)"
           id="g1514">
          <path
             style="stroke:none;stroke-opacity:0.952862"
             inkscape:connector-curvature="0"
             d="M 51.893454,1.8492099 3.1205418,29.934086 C 1.2713318,30.974266 0,32.939052 0,35.019413 V 91.30474 c 0,1.386908 0.5778781,2.65824 1.5024831,3.69842 L 56.285327,1.1557562 C 54.89842,0.92460497 53.280361,1.0401806 51.893454,1.8492099 Z"
             id="path1508" />
          <path
             style="stroke:none;stroke-opacity:0.952862"
             inkscape:connector-curvature="0"
             d="m 56.632054,125.05282 c 0.462303,-0.11557 0.924605,-0.34672 1.386908,-0.57788 L 106.79187,96.390068 c 1.84921,-1.040181 3.00497,-3.004966 3.00497,-5.085328 V 35.019413 c 0,-1.502483 -0.69345,-3.004966 -1.73364,-4.045147 z"
             id="path1510" />
          <path
             inkscape:connector-curvature="0"
             d="M 106.6763,29.934086 57.78781,1.8492099 C 57.325508,1.6180587 56.74763,1.3869074 56.285327,1.2713318 L 1.5024831,95.118736 c 0.4623024,0.577878 1.0401806,1.040181 1.6180587,1.386907 L 52.009029,124.59052 c 1.386908,0.80903 3.004966,1.04018 4.50745,0.57788 L 107.94763,31.089842 c -0.34673,-0.462303 -0.80903,-0.809029 -1.27133,-1.155756 z"
             id="path1512"
             style="fill:url(#linearGradient-4-6);stroke:none;stroke-opacity:0.952862" />
        </g>
        <g
           style="stroke:none;stroke-opacity:0.952862"
           mask="url(#mask-3-69)"
           id="g1532">
          <g
             style="stroke:none;stroke-opacity:0.952862"
             transform="translate(0,-9.24605)"
             id="g1530">
            <path
               style="fill:none;stroke:none;stroke-opacity:0.952862"
               inkscape:connector-curvature="0"
               d="M 109.79684,100.55079 V 44.265463 c 0,-2.080361 -1.27133,-4.045147 -3.12054,-5.085328 L 57.78781,11.09526 C 57.209932,10.748533 56.632054,10.517382 55.9386,10.401806 l 53.51151,91.420314 c 0.23115,-0.34672 0.34673,-0.80903 0.34673,-1.27133 z"
               id="path1516" />
            <path
               style="fill:none;stroke:none;stroke-opacity:0.952862"
               inkscape:connector-curvature="0"
               d="M 3.1205418,39.180135 C 1.2713318,40.220316 0,42.185102 0,44.265463 v 56.285327 c 0,2.08036 1.3869074,4.04515 3.1205418,5.08533 l 48.8884872,28.08487 c 1.155757,0.69346 2.427088,0.92461 3.813996,0.69346 L 3.4672686,39.06456 Z"
               id="path1518" />
            <path
               inkscape:connector-curvature="0"
               d="M 50.390971,0.80902934 49.697517,1.1557562 h 0.924605 z"
               id="path1520"
               style="fill:url(#linearGradient-5-0);fill-rule:evenodd;stroke:none;stroke-opacity:0.952862" />
            <path
               inkscape:connector-curvature="0"
               d="m 106.79187,105.63612 c 1.38691,-0.80903 2.42709,-2.19594 2.88939,-3.69842 L 56.054176,10.401806 c -1.386907,-0.231151 -2.88939,-0.115576 -4.160722,0.693454 l -48.541761,27.9693 52.355756,95.46546 c 0.693454,-0.11557 1.502483,-0.34672 2.195937,-0.69345 z"
               id="path1522"
               style="fill:url(#linearGradient-6-0);fill-rule:evenodd;stroke:none;stroke-opacity:0.952862" />
            <path
               inkscape:connector-curvature="0"
               d="m 111.29932,104.71151 -0.34672,-0.57788 v 0.80903 z"
               id="path1524"
               style="fill:url(#linearGradient-7-9);fill-rule:evenodd;stroke:none;stroke-opacity:0.952862" />
            <path
               inkscape:connector-curvature="0"
               d="m 106.79187,105.63612 -48.772908,28.08487 c -0.693454,0.34673 -1.386908,0.57788 -2.195937,0.69346 l 0.924605,1.73363 54.08939,-31.32099 v -0.69346 l -1.38691,-2.31151 c -0.23115,1.61806 -1.27133,3.00497 -2.65824,3.814 z"
               id="path1526"
               style="fill:url(#linearGradient-8-1);fill-rule:evenodd;stroke:none;stroke-opacity:0.952862" />
            <path
               inkscape:connector-curvature="0"
               d="m 106.79187,105.63612 -48.772908,28.08487 c -0.693454,0.34673 -1.386908,0.57788 -2.195937,0.69346 l 0.924605,1.73363 54.08939,-31.32099 v -0.69346 l -1.38691,-2.31151 c -0.23115,1.61806 -1.27133,3.00497 -2.65824,3.814 z"
               id="path1528"
               style="fill:url(#linearGradient-9-2);fill-rule:evenodd;stroke:none;stroke-opacity:0.952862" />
          </g>
        </g>
      </g>
    </g>
  </g>
</svg>
