<?xml version="1.0" encoding="UTF-8" standalone="no"?>
<!-- Created with Inkscape (http://www.inkscape.org/) -->

<svg
   width="172"
   height="45"
   viewBox="0 0 45.508335 11.90625"
   version="1.1"
   id="svg1671"
   inkscape:version="1.3 (0e150ed6c4, 2023-07-21)"
   sodipodi:docname="ramda.svg"
   xmlns:inkscape="http://www.inkscape.org/namespaces/inkscape"
   xmlns:sodipodi="http://sodipodi.sourceforge.net/DTD/sodipodi-0.dtd"
   xmlns="http://www.w3.org/2000/svg"
   xmlns:svg="http://www.w3.org/2000/svg"
   xmlns:rdf="http://www.w3.org/1999/02/22-rdf-syntax-ns#"
   xmlns:cc="http://creativecommons.org/ns#"
   xmlns:dc="http://purl.org/dc/elements/1.1/">
  <defs
     id="defs1665" />
  <sodipodi:namedview
     id="base"
     pagecolor="#ffffff"
     bordercolor="#666666"
     borderopacity="1.0"
     inkscape:pageopacity="0.0"
     inkscape:pageshadow="2"
     inkscape:zoom="2.8"
     inkscape:cx="-24.642857"
     inkscape:cy="40.357143"
     inkscape:document-units="mm"
     inkscape:current-layer="layer1"
     showgrid="true"
     fit-margin-top="0"
     fit-margin-left="0"
     fit-margin-right="0"
     fit-margin-bottom="0"
     inkscape:window-width="3440"
     inkscape:window-height="1376"
     inkscape:window-x="0"
     inkscape:window-y="27"
     inkscape:window-maximized="1"
     showguides="true"
     inkscape:guide-bbox="true"
     showborder="true"
     units="px"
     inkscape:showpageshadow="2"
     inkscape:pagecheckerboard="0"
     inkscape:deskcolor="#d1d1d1">
    <sodipodi:guide
       position="22.886,28.067287"
       orientation="1,0"
       id="guide828"
       inkscape:locked="false"
       inkscape:label=""
       inkscape:color="rgb(0,0,255)" />
    <inkscape:grid
       id="grid1"
       units="px"
       originx="0"
       originy="0"
       spacingx="0.26458334"
       spacingy="0.26458333"
       empcolor="#0099e5"
       empopacity="0.30196078"
       color="#0099e5"
       opacity="0.14901961"
       empspacing="5"
       dotted="false"
       gridanglex="30"
       gridanglez="30"
       visible="true" />
  </sodipodi:namedview>
  <metadata
     id="metadata1668">
    <rdf:RDF>
      <cc:Work
         rdf:about="">
        <dc:format>image/svg+xml</dc:format>
        <dc:type
           rdf:resource="http://purl.org/dc/dcmitype/StillImage" />
      </cc:Work>
    </rdf:RDF>
  </metadata>
  <g
     inkscape:label="Layer 1"
     inkscape:groupmode="layer"
     id="layer1"
     transform="translate(-87.134682,-137.47311)">
    <g
       id="g1"
       transform="matrix(1.118079,0,0,1.118079,-11.04175,-16.863758)">
      <text
         id="text2609"
         y="146.98633"
         x="99.43103"
         style="font-style:normal;font-weight:normal;font-size:10.4822px;line-height:1.25;font-family:sans-serif;letter-spacing:0px;word-spacing:0px;fill:#884499;fill-opacity:1;stroke:none;stroke-width:0.262055"
         xml:space="preserve"
         transform="scale(1.009648,0.99044416)"><tspan
           style="font-style:normal;font-variant:normal;font-weight:normal;font-stretch:normal;font-size:5.5905px;font-family:'Liberation Sans';-inkscape-font-specification:'Liberation Sans, Normal';font-variant-ligatures:normal;font-variant-caps:normal;font-variant-numeric:normal;font-feature-settings:normal;text-align:start;writing-mode:lr-tb;text-anchor:start;fill:#884499;fill-opacity:1;stroke-width:0.262055"
           y="146.98633"
           x="99.43103"
           id="tspan2607"
           sodipodi:role="line">Ramda</tspan></text>
      <g
         style="fill:#884499;fill-opacity:1"
         transform="matrix(0.03548219,0,0,0.03480731,87.808139,138.03754)"
         id="g2385">
        <path
           style="fill:#884499;fill-opacity:1"
           inkscape:connector-curvature="0"
           d="M 21.971439,25.115211 C 35.864132,10.02127 55.789178,0.3721162 76.406248,0.05874719 92.179154,-0.56799082 108.1218,3.8322323 121.21802,12.67185 c 16.93498,11.085428 29.3,28.816892 34.11805,48.441626 1.0315,3.747371 0.74425,8.343449 3.98239,11.072371 6.14987,1.475446 12.57394,0.404768 18.78909,1.540731 15.85125,3.799599 30.40985,12.652274 41.16885,24.886722 2.58529,2.82032 4.64831,6.08458 6.12375,9.60998 8.10843,16.69996 9.38802,35.51516 12.75673,53.50776 3.12064,24.11636 7.37723,48.06297 11.35963,72.04876 3.62986,22.19697 7.37723,44.64203 6.29349,67.20459 -5.0139,-1.86715 -9.34884,-5.70592 -11.08542,-10.83734 -2.4939,-8.13454 -3.27732,-16.64773 -4.30883,-25.05646 -0.39171,-3.55152 -3.3426,-6.95941 -7.15526,-6.5677 -5.53618,-0.0914 -7.95174,6.90718 -6.28043,11.38574 2.83337,6.67215 7.97785,11.9472 12.76978,17.2353 2.62447,2.79421 3.62986,6.60686 5.71899,9.75361 2.7028,3.23815 6.5938,5.07919 10.40646,6.68521 -1.35793,0.80953 -2.46778,2.35026 -4.24354,2.11524 -5.75815,0.27419 -11.51631,-0.0392 -17.27447,0.0522 -7.07691,-0.0784 -14.23217,0.79647 -21.23075,-0.67897 -9.79278,-24.32527 -21.03489,-48.03686 -31.72861,-71.98347 -5.24893,-12.02554 -10.60232,-24.0119 -16.07322,-35.93298 -6.14986,-13.22679 -11.42491,-26.84528 -17.95343,-39.88927 -0.96622,-4.56996 -3.65597,-8.4479 -5.41867,-12.7045 -2.70281,-6.67215 -5.71899,-13.23984 -9.16605,-19.55945 -17.11778,31.96364 -33.504365,64.30593 -50.073751,96.54377 -13.931864,27.74621 -29.117204,54.89181 -41.900048,83.21253 -12.991757,-0.0914 -25.970457,-0.39171 -38.9622134,-0.48311 33.6741114,-63.405 66.3689444,-127.31922 99.4816024,-191.02453 2.89866,-5.67981 6.04541,-11.25517 8.29122,-17.235291 -6.39795,1.8541 -12.221389,5.418671 -18.867423,6.489351 C 77.019929,105.29851 62.996665,102.37373 50.135479,97.385938 66.352325,82.50091 89.476347,76.912496 111.03352,77.983174 109.21859,72.17279 106.60719,66.584376 102.8337,61.779385 107.31227,53.644848 114.5067,47.716951 121.49221,41.841282 111.37301,40.653091 102.69007,47.45581 96.487978,54.702468 92.636151,52.064945 88.562354,49.779963 84.344929,47.80835 85.036952,40.444178 88.275099,33.798144 91.696044,27.374079 83.509278,29.306521 78.665116,37.206032 76.301791,44.726888 71.170374,43.956522 65.973671,43.87818 60.790025,44.191549 59.889089,38.381166 59.849918,32.49244 60.385257,26.642885 c -6.437122,3.890998 -6.241266,12.378075 -6.293494,18.984939 -4.831106,1.7627 -9.440242,4.06074 -13.853522,6.685205 -2.611408,-4.008512 -4.530793,-8.382621 -6.463236,-12.743673 -3.198975,5.627585 -0.770365,12.247506 1.514617,17.74452 -2.637522,3.825714 -5.013904,7.821169 -7.155259,11.947194 -3.420945,-1.72353 -6.737434,-3.629858 -10.093093,-5.483958 0.92705,4.804992 4.06074,8.656819 8.108423,11.229056 -1.122906,5.026961 -1.592959,10.145322 -1.63213,15.276739 -3.420945,0.313369 -6.854948,0.522282 -10.288949,0.848708 2.807264,3.016177 6.854946,3.721257 10.759002,4.047683 1.005392,4.112968 2.219697,8.186762 3.7082,12.156102 -2.128298,2.07607 -4.269653,4.12603 -6.306551,6.2935 2.91172,-0.43088 5.758155,-1.13596 8.552362,-2.02384 3.603744,3.38177 8.030081,5.61452 12.27362,8.06925 -0.208913,0.99233 -0.639795,2.977 -0.848708,3.96934 1.423218,-0.92705 2.833378,-1.8541 4.256596,-2.78115 8.017023,2.3111 16.752185,3.44706 24.80838,0.65285 4.948618,-1.55379 8.95713,-5.09224 13.840464,-6.7766 -1.827986,8.51319 -8.970188,14.93725 -16.556329,18.58017 -11.085429,5.24893 -23.985786,3.78654 -35.149557,-0.40477 -7.63837,-2.20664 -13.788237,-7.65143 -18.867426,-13.55321 C 6.5510728,110.11655 1.1324003,98.365216 0.16617923,86.039369 -1.2962095,63.881568 6.9688981,41.397342 21.971439,25.115211 Z M 184.64913,146.19316 c -0.79648,4.13908 -0.6398,8.53931 0.73119,12.53476 3.62986,10.02781 14.21912,14.68917 23.03262,19.23302 -0.65285,-2.21969 -1.29265,-4.43939 -1.91938,-6.65909 -11.41186,-1.16207 -17.86204,-17.45726 -8.93102,-25.38289 -1.09679,-2.55918 -2.20664,-5.11836 -3.30343,-7.69059 -3.69514,1.8541 -8.34345,3.60374 -9.60998,7.96479 z m 14.83279,6.93329 c -0.92705,4.64831 -0.013,10.35423 5.15754,11.99942 -1.24042,-4.15214 -2.15441,-8.68293 -5.15754,-11.99942 z"
           id="path2383" />
      </g>
    </g>
  </g>
</svg>
