<?xml version="1.0" encoding="UTF-8" standalone="no"?>
<!-- Created with Inkscape (http://www.inkscape.org/) -->

<svg
   xmlns:dc="http://purl.org/dc/elements/1.1/"
   xmlns:cc="http://creativecommons.org/ns#"
   xmlns:rdf="http://www.w3.org/1999/02/22-rdf-syntax-ns#"
   xmlns:svg="http://www.w3.org/2000/svg"
   xmlns="http://www.w3.org/2000/svg"
   xmlns:sodipodi="http://sodipodi.sourceforge.net/DTD/sodipodi-0.dtd"
   xmlns:inkscape="http://www.inkscape.org/namespaces/inkscape"
   width="198"
   height="46.869011"
   viewBox="0 0 198 46.869009"
   version="1.1"
   id="svg1717"
   inkscape:version="0.92.4 (f8dce91, 2019-08-02)"
   sodipodi:docname="react-router.svg"
   inkscape:export-filename="/home/klequis/dev/cbsite/src/ui/media/react-router.png"
   inkscape:export-xdpi="90"
   inkscape:export-ydpi="90">
  <defs
     id="defs1711">
    <filter
       inkscape:collect="always"
       style="color-interpolation-filters:sRGB"
       id="filter2596"
       x="-0.058800001"
       width="1.1176"
       y="-0.058800001"
       height="1.1176">
      <feGaussianBlur
         inkscape:collect="always"
         stdDeviation="2.0788984"
         id="feGaussianBlur2598" />
    </filter>
  </defs>
  <sodipodi:namedview
     id="base"
     pagecolor="#ffffff"
     bordercolor="#666666"
     borderopacity="1.0"
     inkscape:pageopacity="0.0"
     inkscape:pageshadow="2"
     inkscape:zoom="5.6"
     inkscape:cx="14.480768"
     inkscape:cy="12.451839"
     inkscape:document-units="px"
     inkscape:current-layer="layer1"
     showgrid="false"
     showborder="true"
     showguides="true"
     inkscape:guide-bbox="true"
     inkscape:window-width="2560"
     inkscape:window-height="1376"
     inkscape:window-x="0"
     inkscape:window-y="27"
     inkscape:window-maximized="1"
     gridtolerance="1"
     guidetolerance="1"
     fit-margin-top="0"
     fit-margin-left="0"
     fit-margin-right="0"
     fit-margin-bottom="0"
     units="px">
    <sodipodi:guide
       position="207.32098,59.550482"
       orientation="1,0"
       id="guide2360"
       inkscape:locked="false" />
    <sodipodi:guide
       position="86.499998,64.550483"
       orientation="1,0"
       id="guide2630"
       inkscape:locked="false"
       inkscape:label=""
       inkscape:color="rgb(0,0,255)" />
  </sodipodi:namedview>
  <metadata
     id="metadata1714">
    <rdf:RDF>
      <cc:Work
         rdf:about="">
        <dc:format>image/svg+xml</dc:format>
        <dc:type
           rdf:resource="http://purl.org/dc/dcmitype/StillImage" />
        <dc:title></dc:title>
      </cc:Work>
    </rdf:RDF>
  </metadata>
  <g
     inkscape:label="Layer 1"
     inkscape:groupmode="layer"
     id="layer1"
     transform="translate(-1.0718814,-1076.4512)">
    <g
       aria-label="React Router"
       style="font-style:normal;font-weight:normal;font-size:40px;line-height:1.25;font-family:sans-serif;letter-spacing:0px;word-spacing:0px;fill:#d0021b;fill-opacity:1;stroke:none"
       id="text2609">
      <path
         d="m 66.111611,1098.9066 q 0.677083,0.2291 1.3125,0.9791 0.645833,0.75 1.291666,2.0625 l 2.135417,4.25 h -2.260417 l -1.989583,-3.9895 q -0.770833,-1.5625 -1.5,-2.073 -0.71875,-0.5104 -1.96875,-0.5104 h -2.291667 v 6.5729 H 58.73661 v -15.552 h 4.750001 q 2.666666,0 3.979166,1.1145 1.3125,1.1146 1.3125,3.3646 0,1.4688 -0.6875,2.4375 -0.677083,0.9688 -1.979166,1.3438 z m -5.270834,-6.5313 v 5.5209 h 2.645834 q 1.520833,0 2.291666,-0.698 0.78125,-0.7083 0.78125,-2.0729 0,-1.3646 -0.78125,-2.0521 -0.770833,-0.6979 -2.291666,-0.6979 z"
         style="font-style:normal;font-variant:normal;font-weight:normal;font-stretch:normal;font-size:21.33333397px;font-family:'Source Sans Pro';-inkscape-font-specification:'Source Sans Pro, Normal';font-variant-ligatures:normal;font-variant-caps:normal;font-variant-numeric:normal;font-feature-settings:normal;text-align:start;writing-mode:lr-tb;text-anchor:start;fill:#d0021b;fill-opacity:1"
         id="path28"
         inkscape:connector-curvature="0" />
      <path
         d="m 82.507444,1099.8857 v 0.9375 h -8.8125 q 0.125,1.9792 1.1875,3.0209 1.072917,1.0312 2.979167,1.0312 1.104166,0 2.135416,-0.2708 1.041667,-0.2708 2.0625,-0.8125 v 1.8125 q -1.03125,0.4375 -2.114583,0.6667 -1.083333,0.2291 -2.197917,0.2291 -2.791666,0 -4.427083,-1.625 -1.625,-1.625 -1.625,-4.3958 0,-2.8646 1.541666,-4.5417 1.552084,-1.6875 4.177084,-1.6875 2.354167,0 3.71875,1.5209 1.375,1.5104 1.375,4.1145 z m -1.916667,-0.5625 q -0.02083,-1.5729 -0.885416,-2.5104 -0.854167,-0.9375 -2.270834,-0.9375 -1.604166,0 -2.572916,0.9063 -0.958334,0.9062 -1.104167,2.5521 z"
         style="font-style:normal;font-variant:normal;font-weight:normal;font-stretch:normal;font-size:21.33333397px;font-family:'Source Sans Pro';-inkscape-font-specification:'Source Sans Pro, Normal';font-variant-ligatures:normal;font-variant-caps:normal;font-variant-numeric:normal;font-feature-settings:normal;text-align:start;writing-mode:lr-tb;text-anchor:start;fill:#d0021b;fill-opacity:1"
         id="path30"
         inkscape:connector-curvature="0" />
      <path
         d="m 90.955361,1100.3337 q -2.322917,0 -3.21875,0.5312 -0.895834,0.5313 -0.895834,1.8125 0,1.0208 0.666667,1.625 0.677083,0.5938 1.833333,0.5938 1.59375,0 2.552084,-1.125 0.96875,-1.1355 0.96875,-3.0105 v -0.427 z m 3.822916,-0.7917 v 6.6562 h -1.916666 v -1.7708 q -0.65625,1.0625 -1.635417,1.5729 -0.979167,0.5 -2.395833,0.5 -1.791667,0 -2.854167,-1 -1.052084,-1.0104 -1.052084,-2.6979 0,-1.9687 1.3125,-2.9687 1.322917,-1 3.937501,-1 h 2.6875 v -0.1875 q 0,-1.323 -0.875,-2.0417 -0.864584,-0.7292 -2.4375,-0.7292 -1,0 -1.947917,0.2396 -0.947917,0.2396 -1.822917,0.7188 v -1.7709 q 1.052084,-0.4062 2.041667,-0.6041 0.989583,-0.2084 1.927083,-0.2084 2.53125,0 3.78125,1.3125 1.25,1.3125 1.25,3.9792 z"
         style="font-style:normal;font-variant:normal;font-weight:normal;font-stretch:normal;font-size:21.33333397px;font-family:'Source Sans Pro';-inkscape-font-specification:'Source Sans Pro, Normal';font-variant-ligatures:normal;font-variant-caps:normal;font-variant-numeric:normal;font-feature-settings:normal;text-align:start;writing-mode:lr-tb;text-anchor:start;fill:#d0021b;fill-opacity:1"
         id="path32"
         inkscape:connector-curvature="0" />
      <path
         d="m 107.13245,1094.9795 v 1.7917 q -0.8125,-0.448 -1.63542,-0.6667 -0.8125,-0.2292 -1.64583,-0.2292 -1.86459,0 -2.89584,1.1875 -1.031247,1.1771 -1.031247,3.3125 0,2.1354 1.031247,3.3229 1.03125,1.1771 2.89584,1.1771 0.83333,0 1.64583,-0.2187 0.82292,-0.2292 1.63542,-0.6771 v 1.7708 q -0.80209,0.375 -1.66667,0.5625 -0.85417,0.1875 -1.82292,0.1875 -2.63541,0 -4.187497,-1.6562 -1.552083,-1.6563 -1.552083,-4.4688 0,-2.8541 1.5625,-4.4896 1.57292,-1.6354 4.30208,-1.6354 0.88542,0 1.72917,0.1875 0.84375,0.1771 1.63542,0.5417 z"
         style="font-style:normal;font-variant:normal;font-weight:normal;font-stretch:normal;font-size:21.33333397px;font-family:'Source Sans Pro';-inkscape-font-specification:'Source Sans Pro, Normal';font-variant-ligatures:normal;font-variant-caps:normal;font-variant-numeric:normal;font-feature-settings:normal;text-align:start;writing-mode:lr-tb;text-anchor:start;fill:#d0021b;fill-opacity:1"
         id="path34"
         inkscape:connector-curvature="0" />
      <path
         d="m 112.38245,1091.2191 v 3.3125 h 3.94791 v 1.4896 h -3.94791 v 6.3333 q 0,1.4271 0.38541,1.8333 0.39584,0.4063 1.59375,0.4063 h 1.96875 v 1.6041 h -1.96875 q -2.21875,0 -3.0625,-0.8229 -0.84375,-0.8333 -0.84375,-3.0208 v -6.3333 h -1.40625 v -1.4896 h 1.40625 v -3.3125 z"
         style="font-style:normal;font-variant:normal;font-weight:normal;font-stretch:normal;font-size:21.33333397px;font-family:'Source Sans Pro';-inkscape-font-specification:'Source Sans Pro, Normal';font-variant-ligatures:normal;font-variant-caps:normal;font-variant-numeric:normal;font-feature-settings:normal;text-align:start;writing-mode:lr-tb;text-anchor:start;fill:#d0021b;fill-opacity:1"
         id="path36"
         inkscape:connector-curvature="0" />
      <path
         d="m 133.11161,1098.9066 q 0.67708,0.2291 1.3125,0.9791 0.64583,0.75 1.29167,2.0625 l 2.13541,4.25 h -2.26041 l -1.98959,-3.9895 q -0.77083,-1.5625 -1.5,-2.073 -0.71875,-0.5104 -1.96875,-0.5104 h -2.29166 v 6.5729 h -2.10417 v -15.552 h 4.75 q 2.66667,0 3.97917,1.1145 1.3125,1.1146 1.3125,3.3646 0,1.4688 -0.6875,2.4375 -0.67709,0.9688 -1.97917,1.3438 z m -5.27083,-6.5313 v 5.5209 h 2.64583 q 1.52083,0 2.29167,-0.698 0.78125,-0.7083 0.78125,-2.0729 0,-1.3646 -0.78125,-2.0521 -0.77084,-0.6979 -2.29167,-0.6979 z"
         style="font-style:normal;font-variant:normal;font-weight:normal;font-stretch:normal;font-size:21.33333397px;font-family:'Source Sans Pro';-inkscape-font-specification:'Source Sans Pro, Normal';font-variant-ligatures:normal;font-variant-caps:normal;font-variant-numeric:normal;font-feature-settings:normal;text-align:start;writing-mode:lr-tb;text-anchor:start;fill:#d0021b;fill-opacity:1"
         id="path38"
         inkscape:connector-curvature="0" />
      <path
         d="m 144.04911,1095.8753 q -1.54167,0 -2.4375,1.2084 -0.89583,1.1979 -0.89583,3.2916 0,2.0938 0.88541,3.3021 0.89584,1.1979 2.44792,1.1979 1.53125,0 2.42708,-1.2083 0.89584,-1.2083 0.89584,-3.2917 0,-2.0729 -0.89584,-3.2812 -0.89583,-1.2188 -2.42708,-1.2188 z m 0,-1.625 q 2.5,0 3.92708,1.625 1.42709,1.625 1.42709,4.5 0,2.8646 -1.42709,4.5 -1.42708,1.625 -3.92708,1.625 -2.51042,0 -3.9375,-1.625 -1.41667,-1.6354 -1.41667,-4.5 0,-2.875 1.41667,-4.5 1.42708,-1.625 3.9375,-1.625 z"
         style="font-style:normal;font-variant:normal;font-weight:normal;font-stretch:normal;font-size:21.33333397px;font-family:'Source Sans Pro';-inkscape-font-specification:'Source Sans Pro, Normal';font-variant-ligatures:normal;font-variant-caps:normal;font-variant-numeric:normal;font-feature-settings:normal;text-align:start;writing-mode:lr-tb;text-anchor:start;fill:#d0021b;fill-opacity:1"
         id="path40"
         inkscape:connector-curvature="0" />
      <path
         d="m 152.37203,1101.5941 v -7.0625 h 1.91667 v 6.9896 q 0,1.6562 0.64583,2.4895 0.64584,0.823 1.9375,0.823 1.55209,0 2.44792,-0.9896 0.90625,-0.9896 0.90625,-2.6979 v -6.6146 h 1.91667 v 11.6666 h -1.91667 v -1.7916 q -0.69792,1.0625 -1.625,1.5833 -0.91667,0.5104 -2.13542,0.5104 -2.01041,0 -3.05208,-1.25 -1.04167,-1.25 -1.04167,-3.6562 z m 4.82292,-7.3438 z"
         style="font-style:normal;font-variant:normal;font-weight:normal;font-stretch:normal;font-size:21.33333397px;font-family:'Source Sans Pro';-inkscape-font-specification:'Source Sans Pro, Normal';font-variant-ligatures:normal;font-variant-caps:normal;font-variant-numeric:normal;font-feature-settings:normal;text-align:start;writing-mode:lr-tb;text-anchor:start;fill:#d0021b;fill-opacity:1"
         id="path42"
         inkscape:connector-curvature="0" />
      <path
         d="m 168.00745,1091.2191 v 3.3125 h 3.94791 v 1.4896 h -3.94791 v 6.3333 q 0,1.4271 0.38541,1.8333 0.39584,0.4063 1.59375,0.4063 h 1.96875 v 1.6041 h -1.96875 q -2.21875,0 -3.0625,-0.8229 -0.84375,-0.8333 -0.84375,-3.0208 v -6.3333 h -1.40625 v -1.4896 h 1.40625 v -3.3125 z"
         style="font-style:normal;font-variant:normal;font-weight:normal;font-stretch:normal;font-size:21.33333397px;font-family:'Source Sans Pro';-inkscape-font-specification:'Source Sans Pro, Normal';font-variant-ligatures:normal;font-variant-caps:normal;font-variant-numeric:normal;font-feature-settings:normal;text-align:start;writing-mode:lr-tb;text-anchor:start;fill:#d0021b;fill-opacity:1"
         id="path44"
         inkscape:connector-curvature="0" />
      <path
         d="m 184.46578,1099.8857 v 0.9375 h -8.8125 q 0.125,1.9792 1.1875,3.0209 1.07292,1.0312 2.97917,1.0312 1.10416,0 2.13541,-0.2708 1.04167,-0.2708 2.0625,-0.8125 v 1.8125 q -1.03125,0.4375 -2.11458,0.6667 -1.08333,0.2291 -2.19792,0.2291 -2.79166,0 -4.42708,-1.625 -1.625,-1.625 -1.625,-4.3958 0,-2.8646 1.54167,-4.5417 1.55208,-1.6875 4.17708,-1.6875 2.35417,0 3.71875,1.5209 1.375,1.5104 1.375,4.1145 z m -1.91667,-0.5625 q -0.0208,-1.5729 -0.88541,-2.5104 -0.85417,-0.9375 -2.27084,-0.9375 -1.60416,0 -2.57291,0.9063 -0.95834,0.9062 -1.10417,2.5521 z"
         style="font-style:normal;font-variant:normal;font-weight:normal;font-stretch:normal;font-size:21.33333397px;font-family:'Source Sans Pro';-inkscape-font-specification:'Source Sans Pro, Normal';font-variant-ligatures:normal;font-variant-caps:normal;font-variant-numeric:normal;font-feature-settings:normal;text-align:start;writing-mode:lr-tb;text-anchor:start;fill:#d0021b;fill-opacity:1"
         id="path46"
         inkscape:connector-curvature="0" />
      <path
         d="m 194.37202,1096.3232 q -0.32291,-0.1875 -0.70833,-0.2708 -0.375,-0.094 -0.83333,-0.094 -1.625,0 -2.5,1.0625 -0.86459,1.052 -0.86459,3.0312 v 6.1458 h -1.92708 v -11.6666 h 1.92708 v 1.8125 q 0.60417,-1.0625 1.57292,-1.5729 0.96875,-0.5209 2.35417,-0.5209 0.19791,0 0.4375,0.031 0.23958,0.021 0.53125,0.073 z"
         style="font-style:normal;font-variant:normal;font-weight:normal;font-stretch:normal;font-size:21.33333397px;font-family:'Source Sans Pro';-inkscape-font-specification:'Source Sans Pro, Normal';font-variant-ligatures:normal;font-variant-caps:normal;font-variant-numeric:normal;font-feature-settings:normal;text-align:start;writing-mode:lr-tb;text-anchor:start;fill:#d0021b;fill-opacity:1"
         id="path48"
         inkscape:connector-curvature="0" />
    </g>
    <g
       id="g2605"
       transform="matrix(0.47540309,0,0,0.47540309,6.652194,586.26918)">
      <path
         inkscape:connector-curvature="0"
         style="fill:#2a2a2a;fill-opacity:1;stroke:#000000;stroke-width:0.46092409;stroke-miterlimit:4;stroke-dasharray:none;stroke-opacity:1;filter:url(#filter2596)"
         d="M 84.852997,1080.0931 A 42.426498,42.426498 0 0 1 42.426498,1122.5196 42.426498,42.426498 0 0 1 0,1080.0931 a 42.426498,42.426498 0 0 1 42.426498,-42.4265 42.426498,42.426498 0 0 1 42.426499,42.4265 z"
         id="path2358-7" />
      <g
         transform="translate(1.4543114,-23.360427)"
         id="g2367">
        <path
           inkscape:connector-curvature="0"
           style="fill:#2a2a2a;fill-opacity:1;stroke:none;stroke-width:0.46092409;stroke-miterlimit:4;stroke-dasharray:none;stroke-opacity:0.95286195"
           d="m 83.398685,1103.4536 a 42.426498,42.426498 0 0 1 -42.426498,42.4265 42.426498,42.426498 0 0 1 -42.4264984,-42.4265 42.426498,42.426498 0 0 1 42.4264984,-42.4265 42.426498,42.426498 0 0 1 42.426498,42.4265 z"
           id="path2358" />
        <path
           style="fill:#ffffff;fill-opacity:1;stroke-width:0.26199183"
           inkscape:connector-curvature="0"
           d="m 27.719373,1105.3442 c 3.358175,0 6.080515,-2.7223 6.080515,-6.0805 0,-3.3582 -2.72234,-6.0805 -6.080515,-6.0805 -3.358174,0 -6.080513,2.7223 -6.080513,6.0805 0,3.3582 2.722339,6.0805 6.080513,6.0805 z m -14.372122,12.161 c 3.358175,0 6.080513,-2.7223 6.080513,-6.0805 0,-3.3582 -2.722338,-6.0805 -6.080513,-6.0805 -3.358175,0 -6.0805137,2.7223 -6.0805137,6.0805 0,3.3582 2.7223387,6.0805 6.0805137,6.0805 z m 54.908879,0 c 3.358175,0 6.080513,-2.7223 6.080513,-6.0805 0,-3.3582 -2.722338,-6.0805 -6.080513,-6.0805 -3.358174,0 -6.080513,2.7223 -6.080513,6.0805 0,3.3582 2.722339,6.0805 6.080513,6.0805 z"
           id="path2397" />
        <path
           style="fill:#d0021b;stroke-width:0.26199183"
           inkscape:connector-curvature="0"
           d="m 48.285607,1099.5199 c -0.194406,-2.0315 -0.293399,-3.7223 -1.849654,-4.9107 -1.970925,-1.505 -4.203481,-0.5284 -6.953533,-1.5211 -2.702218,-0.6537 -4.706542,-3.0529 -4.706542,-5.9126 0,-3.3626 2.771321,-6.0885 6.189916,-6.0885 2.531957,0 4.70885,1.4953 5.667722,3.6371 1.467531,2.7875 0.513745,5.6243 2.357577,7.0532 2.183244,1.692 5.126638,0.453 8.410952,2.0561 1.055303,0.4849 1.948556,1.254 2.577986,2.2073 0.629428,0.9532 0.995029,2.0906 0.995029,3.3119 0,2.8597 -2.004323,5.2589 -4.706541,5.9126 -2.750052,0.9926 -4.982608,0.016 -6.953533,1.5211 -2.216314,1.6924 -1.02979,4.5237 -2.836103,7.5146 -1.025224,1.9694 -3.109117,3.3174 -5.513089,3.3174 -3.418595,0 -6.189916,-2.726 -6.189916,-6.0886 0,-2.4427 1.46241,-4.5494 3.573016,-5.5193 3.284314,-1.603 6.227708,-0.364 8.410951,-2.056 1.259487,-0.976 1.525762,-2.4817 1.525762,-4.4345 z"
           id="path2399" />
      </g>
    </g>
  </g>
</svg>
