<?xml version="1.0" encoding="UTF-8" standalone="no"?>
<!-- Created with Inkscape (http://www.inkscape.org/) -->

<svg
   width="172"
   height="45"
   viewBox="0 0 172 44.999999"
   version="1.1"
   id="svg1717"
   inkscape:version="1.3 (0e150ed6c4, 2023-07-21)"
   sodipodi:docname="react.svg"
   inkscape:export-filename="/home/klequis/dev/cbsite/src/ui/media/react-router.png"
   inkscape:export-xdpi="90"
   inkscape:export-ydpi="90"
   xmlns:inkscape="http://www.inkscape.org/namespaces/inkscape"
   xmlns:sodipodi="http://sodipodi.sourceforge.net/DTD/sodipodi-0.dtd"
   xmlns="http://www.w3.org/2000/svg"
   xmlns:svg="http://www.w3.org/2000/svg"
   xmlns:rdf="http://www.w3.org/1999/02/22-rdf-syntax-ns#"
   xmlns:cc="http://creativecommons.org/ns#"
   xmlns:dc="http://purl.org/dc/elements/1.1/">
  <defs
     id="defs1711">
    <linearGradient
       id="linearGradient-1-8"
       y2="105.42175"
       x2="32.862125"
       y1="21.345526"
       x1="79.823227"
       gradientTransform="scale(0.93681241,1.0674496)"
       gradientUnits="userSpaceOnUse">
      <stop
         id="stop1421"
         offset="0%"
         stop-color="#41873F" />
      <stop
         id="stop1423"
         offset="32.88%"
         stop-color="#418B3D" />
      <stop
         id="stop1425"
         offset="63.52%"
         stop-color="#419637" />
      <stop
         id="stop1427"
         offset="93.19%"
         stop-color="#3FA92D" />
      <stop
         id="stop1429"
         offset="100%"
         stop-color="#3FAE2A" />
    </linearGradient>
    <mask
       id="mask-3-69"
       fill="#ffffff">
      <path
         d="m 57.903386,1.8492099 c -1.84921,-1.04018056 -4.045147,-1.04018056 -5.894357,0 L 3.351693,29.934086 c -1.8492099,1.04018 -2.88939052,3.004966 -2.88939052,5.085327 V 91.30474 c 0,2.080362 1.15575622,4.045147 2.88939052,5.085328 l 48.657336,28.084872 c 1.84921,1.04018 4.045147,1.04018 5.894357,0 L 106.56072,96.390068 c 1.84921,-1.040181 2.88939,-3.004966 2.88939,-5.085328 V 35.019413 c 0,-2.080361 -1.15575,-4.045147 -2.88939,-5.085327 z"
         id="use1503"
         inkscape:connector-curvature="0" />
    </mask>
    <linearGradient
       id="linearGradient-4-6"
       y2="-19.865484"
       x2="184.67371"
       y1="64.593353"
       x1="51.368568"
       gradientTransform="scale(0.92601891,1.0798916)"
       gradientUnits="userSpaceOnUse">
      <stop
         id="stop1433"
         offset="13.76%"
         stop-color="#41873F" />
      <stop
         id="stop1435"
         offset="40.32%"
         stop-color="#54A044" />
      <stop
         id="stop1437"
         offset="71.36%"
         stop-color="#66B848" />
      <stop
         id="stop1439"
         offset="90.81%"
         stop-color="#6CC04A" />
    </linearGradient>
    <mask
       id="mask5"
       fill="#ffffff">
      <path
         d="m 57.903386,1.8492099 c -1.84921,-1.04018056 -4.045147,-1.04018056 -5.894357,0 L 3.351693,29.934086 c -1.8492099,1.04018 -2.88939052,3.004966 -2.88939052,5.085327 V 91.30474 c 0,2.080362 1.15575622,4.045147 2.88939052,5.085328 l 48.657336,28.084872 c 1.84921,1.04018 4.045147,1.04018 5.894357,0 L 106.56072,96.390068 c 1.84921,-1.040181 2.88939,-3.004966 2.88939,-5.085328 V 35.019413 c 0,-2.080361 -1.15575,-4.045147 -2.88939,-5.085327 z"
         id="use5"
         inkscape:connector-curvature="0" />
    </mask>
    <linearGradient
       id="linearGradient-5-0"
       y2="1.3971804"
       x2="60.600269"
       y1="1.3971804"
       x1="5.4425087"
       gradientTransform="scale(1.6329932,0.61237242)"
       gradientUnits="userSpaceOnUse">
      <stop
         id="stop1442"
         offset="9.191646%"
         stop-color="#6CC04A" />
      <stop
         id="stop1444"
         offset="28.64%"
         stop-color="#66B848" />
      <stop
         id="stop1446"
         offset="59.68%"
         stop-color="#54A044" />
      <stop
         id="stop1448"
         offset="86.24%"
         stop-color="#41873F" />
    </linearGradient>
    <linearGradient
       id="linearGradient-6-0"
       y2="66.989319"
       x2="120.2794"
       y1="66.989319"
       x1="-1.421301"
       gradientTransform="scale(0.92514088,1.0809165)"
       gradientUnits="userSpaceOnUse">
      <stop
         id="stop1451"
         offset="9.191646%"
         stop-color="#6CC04A" />
      <stop
         id="stop1453"
         offset="28.64%"
         stop-color="#66B848" />
      <stop
         id="stop1455"
         offset="59.68%"
         stop-color="#54A044" />
      <stop
         id="stop1457"
         offset="86.24%"
         stop-color="#41873F" />
    </linearGradient>
    <linearGradient
       id="linearGradient-7-9"
       y2="68.362541"
       x2="169.63257"
       y1="68.362541"
       x1="118.0377"
       gradientTransform="scale(0.65464693,1.527541)"
       gradientUnits="userSpaceOnUse">
      <stop
         id="stop1460"
         offset="9.191646%"
         stop-color="#6CC04A" />
      <stop
         id="stop1462"
         offset="28.64%"
         stop-color="#66B848" />
      <stop
         id="stop1464"
         offset="59.68%"
         stop-color="#54A044" />
      <stop
         id="stop1466"
         offset="86.24%"
         stop-color="#41873F" />
    </linearGradient>
    <linearGradient
       id="linearGradient-8-1"
       y2="150.75189"
       x2="87.896973"
       y1="150.75189"
       x1="-1.0386474"
       gradientTransform="scale(1.2659753,0.7899048)"
       gradientUnits="userSpaceOnUse">
      <stop
         id="stop1469"
         offset="9.191646%"
         stop-color="#6CC04A" />
      <stop
         id="stop1471"
         offset="28.64%"
         stop-color="#66B848" />
      <stop
         id="stop1473"
         offset="59.68%"
         stop-color="#54A044" />
      <stop
         id="stop1475"
         offset="86.24%"
         stop-color="#41873F" />
    </linearGradient>
    <linearGradient
       id="linearGradient-9-2"
       y2="216.51357"
       x2="46.004009"
       y1="37.182369"
       x1="100.85383"
       gradientTransform="scale(1.2659753,0.7899048)"
       gradientUnits="userSpaceOnUse">
      <stop
         id="stop1478"
         offset="0%"
         stop-color="#41873F" />
      <stop
         id="stop1480"
         offset="32.88%"
         stop-color="#418B3D" />
      <stop
         id="stop1482"
         offset="63.52%"
         stop-color="#419637" />
      <stop
         id="stop1484"
         offset="93.19%"
         stop-color="#3FA92D" />
      <stop
         id="stop1486"
         offset="100%"
         stop-color="#3FAE2A" />
    </linearGradient>
  </defs>
  <sodipodi:namedview
     id="base"
     pagecolor="#ffffff"
     bordercolor="#666666"
     borderopacity="1.0"
     inkscape:pageopacity="0.0"
     inkscape:pageshadow="2"
     inkscape:zoom="5.6"
     inkscape:cx="76.071429"
     inkscape:cy="12.5"
     inkscape:document-units="px"
     inkscape:current-layer="layer1"
     showgrid="true"
     showborder="true"
     showguides="true"
     inkscape:guide-bbox="true"
     inkscape:window-width="1720"
     inkscape:window-height="1376"
     inkscape:window-x="0"
     inkscape:window-y="27"
     inkscape:window-maximized="0"
     gridtolerance="1"
     guidetolerance="1"
     fit-margin-top="0"
     fit-margin-left="0"
     fit-margin-right="0"
     fit-margin-bottom="0"
     units="px"
     inkscape:showpageshadow="2"
     inkscape:pagecheckerboard="0"
     inkscape:deskcolor="#d1d1d1">
    <sodipodi:guide
       position="207.32098,59.550482"
       orientation="1,0"
       id="guide2360"
       inkscape:locked="false" />
    <sodipodi:guide
       position="86.499999,65.357142"
       orientation="1,0"
       id="guide2630"
       inkscape:locked="false"
       inkscape:label=""
       inkscape:color="rgb(255,0,0)" />
    <sodipodi:guide
       position="170,65.535712"
       orientation="1,0"
       id="guide1933"
       inkscape:locked="false" />
    <inkscape:grid
       id="grid1"
       units="px"
       originx="0"
       originy="0"
       spacingx="1"
       spacingy="0.99999998"
       empcolor="#0099e5"
       empopacity="0.30196078"
       color="#0099e5"
       opacity="0.14901961"
       empspacing="5"
       dotted="false"
       gridanglex="30"
       gridanglez="30"
       visible="true" />
  </sodipodi:namedview>
  <metadata
     id="metadata1714">
    <rdf:RDF>
      <cc:Work
         rdf:about="">
        <dc:format>image/svg+xml</dc:format>
        <dc:type
           rdf:resource="http://purl.org/dc/dcmitype/StillImage" />
      </cc:Work>
    </rdf:RDF>
  </metadata>
  <g
     inkscape:label="Layer 1"
     inkscape:groupmode="layer"
     id="layer1"
     transform="translate(-1.0718819,-1077.4371)">
    <g
       id="g5"
       transform="matrix(1.2515185,0,0,1.2515185,-3.14784,-187.93437)">
      <g
         style="stroke:none;stroke-opacity:0.952862"
         id="g1"
         transform="matrix(0.15717695,0,0,0.15786428,3.3716815,1011.0689)">
        <path
           d="m 210.48338,73.823637 c -2.65568,-0.914087 -5.40751,-1.778961 -8.24091,-2.5969 0.4657,-1.900627 0.89313,-3.776648 1.27316,-5.620771 6.23821,-30.281074 2.15945,-54.675718 -11.7683,-62.7074732 -13.35497,-7.7013894 -35.196,0.3285429 -57.25439,19.5252852 -2.12118,1.845945 -4.24828,3.800342 -6.37446,5.848608 -1.4167,-1.355182 -2.83112,-2.664796 -4.2419,-3.917451 C 100.75875,3.8285286 77.58668,-4.8215794 63.672597,3.2334152 50.330387,10.957133 46.379216,33.890422 51.994518,62.588021 c 0.542255,2.77188 1.176101,5.602543 1.89288,8.480596 -3.279504,0.930947 -6.445545,1.923411 -9.474882,2.979213 C 17.30933,83.497195 0,98.306683 0,113.668 c 0,15.86529 18.581579,31.77842 46.811653,41.42737 2.227802,0.76144 4.53945,1.48141 6.921727,2.16492 -0.773284,3.11273 -1.445862,6.16303 -2.010446,9.13814 -5.354199,28.19954 -1.172911,50.59103 12.133756,58.26599 13.744572,7.92604 36.81183,-0.221 59.27349,-19.85519 1.77532,-1.55203 3.55702,-3.19794 5.3419,-4.92313 2.31347,2.2278 4.62329,4.33622 6.92082,6.31385 21.75673,18.72239 43.24507,26.28252 56.53943,18.58614 13.7309,-7.94882 18.19334,-32.00262 12.39987,-61.26799 -0.44246,-2.23509 -0.95737,-4.51849 -1.53563,-6.84244 1.61993,-0.47892 3.21024,-0.97333 4.76091,-1.48733 C 236.90533,145.46465 256,129.74517 256,113.668 256,98.251091 238.13247,83.341809 210.48338,73.823637 Z m -6.36535,70.983923 c -1.39983,0.46343 -2.83613,0.91136 -4.29976,1.34562 -3.23986,-10.25683 -7.61253,-21.16345 -12.96354,-32.43187 5.10631,-11.00003 9.30993,-21.767214 12.45911,-31.957509 2.61877,0.75779 5.16053,1.557047 7.6098,2.400505 23.68971,8.155243 38.14012,20.212904 38.14012,29.503694 0,9.89638 -15.60601,22.74327 -40.94573,31.13956 z m -10.51428,20.83445 c 2.56182,12.94076 2.92772,24.64071 1.23079,33.78705 -1.5247,8.21858 -4.59095,13.69809 -8.38217,15.89263 -8.06776,4.66977 -25.32058,-1.4003 -43.92722,-17.41186 -2.13303,-1.83546 -4.28154,-3.79533 -6.43689,-5.86957 7.21336,-7.88913 14.42262,-17.06053 21.45872,-27.24627 12.37572,-1.09818 24.06792,-2.89354 34.67106,-5.34463 0.52221,2.1066 0.98609,4.17263 1.38571,6.19265 z M 87.276187,214.51469 c -7.882294,2.78372 -14.160149,2.86347 -17.955024,0.67531 -8.075044,-4.65747 -11.432013,-22.63574 -6.85292,-46.75196 0.524484,-2.76186 1.148761,-5.5989 1.868274,-8.49882 10.486941,2.31893 22.093478,3.98762 34.498816,4.9933 7.083497,9.96701 14.500997,19.12839 21.975917,27.15012 -1.63315,1.57664 -3.25991,3.07764 -4.87757,4.49206 -9.93238,8.682 -19.885719,14.84184 -28.657493,17.93999 z M 50.348614,144.74696 c -12.482803,-4.2665 -22.791574,-9.81163 -29.857751,-15.86256 -6.349397,-5.43758 -9.555081,-10.83598 -9.555081,-15.2164 0,-9.32178 13.897679,-21.211748 37.076578,-29.293172 2.812436,-0.980616 5.756562,-1.904728 8.811874,-2.772792 3.203406,10.420412 7.405655,21.315184 12.476879,32.332074 -5.136841,11.18048 -9.398784,22.24886 -12.633632,32.7914 -2.178134,-0.6261 -4.288372,-1.28501 -6.318867,-1.97855 z M 62.727068,60.487807 c -4.811033,-24.587395 -1.615829,-43.135254 6.424583,-47.789534 8.564441,-4.9582168 27.502814,2.111149 47.463269,19.834689 1.2759,1.132812 2.5568,2.318482 3.84136,3.545164 -7.43801,7.986643 -14.78762,17.079213 -21.808229,26.987444 -12.039886,1.115952 -23.564858,2.908583 -34.16116,5.309087 -0.6662,-2.679834 -1.256301,-5.312733 -1.759823,-7.88685 z M 173.1539,87.755037 c -2.5331,-4.375407 -5.13365,-8.647374 -7.78478,-12.802689 8.16801,1.032563 15.99379,2.403238 23.34295,4.080584 -2.20639,7.071189 -4.9564,14.464541 -8.19352,22.043808 -2.32213,-4.40867 -4.77823,-8.853795 -7.36465,-13.321703 z M 128.12212,43.89389 c 5.04434,5.464929 10.09597,11.566438 15.06467,18.186507 C 138.17981,61.843901 133.11087,61.720868 128,61.720868 c -5.06257,0 -10.09415,0.120299 -15.07013,0.352694 4.97371,-6.558553 10.06908,-12.65186 15.19225,-18.179672 z M 82.801898,87.830679 c -2.530372,4.38771 -4.940901,8.808684 -7.226574,13.237861 C 72.3906,93.5157 69.66611,86.088628 67.440586,78.91719 c 7.304039,-1.634512 15.092919,-2.971011 23.208974,-3.98398 -2.688492,4.193591 -5.310455,8.497001 -7.847662,12.896558 z m 8.081424,65.352221 c -8.38536,-0.93551 -16.291348,-2.2032 -23.593565,-3.7926 2.261067,-7.29948 5.045707,-14.88513 8.29787,-22.60064 2.291598,4.42598 4.711696,8.84878 7.257561,13.24606 h 4.55e-4 c 2.593256,4.47976 5.279925,8.86792 8.037679,13.14718 z m 37.541368,31.03021 c -5.18332,-5.59252 -10.35343,-11.77879 -15.40278,-18.43303 4.90171,0.19229 9.89912,0.29072 14.97809,0.29072 5.21795,0 10.37621,-0.11757 15.45336,-0.34358 -4.9851,6.77409 -10.01851,12.96992 -15.02867,18.48589 z m 52.19821,-57.8167 c 3.42167,7.7989 6.3061,15.34491 8.59633,22.51999 -7.42251,1.69329 -15.43649,3.05713 -23.88018,4.07056 2.6575,-4.21137 5.28083,-8.5567 7.8586,-13.02643 2.60783,-4.52213 5.08398,-9.0511 7.42525,-13.56412 z m -16.89831,8.10056 c -4.00176,6.93859 -8.11014,13.5623 -12.28094,19.81464 -7.59659,0.54317 -15.4447,0.82295 -23.44365,0.82295 -7.96659,0 -15.71583,-0.24743 -23.17799,-0.73182 -4.33895,-6.33435 -8.536642,-12.97766 -12.512876,-19.84608 h 9.11e-4 c -3.965753,-6.84972 -7.615722,-13.75733 -10.923022,-20.62619 3.306389,-6.88482 6.946789,-13.80017 10.889758,-20.637596 l -9.11e-4,0.0014 c 3.953449,-6.855654 8.11423,-13.466609 12.41308,-19.761325 7.61345,-0.57552 15.42056,-0.875811 23.31059,-0.875811 H 128 c 7.92558,0 15.74271,0.30257 23.35388,0.883102 4.23323,6.248692 8.36577,12.838231 12.33471,19.694796 4.01405,6.933574 7.70139,13.802894 11.03603,20.540074 -3.32462,6.85292 -7.00375,13.79151 -11.00003,20.72189 z M 186.28468,12.37292 c 8.57264,4.943635 11.90637,24.881307 6.52027,51.025749 -0.34358,1.668232 -0.73045,3.36745 -1.15058,5.089452 -10.62091,-2.450629 -22.15408,-4.274246 -34.22906,-5.407058 -7.03428,-10.017138 -14.32373,-19.123834 -21.64053,-27.00795 1.96715,-1.892424 3.93158,-3.696904 5.88779,-5.399767 C 160.57222,14.225701 178.23652,7.7318541 186.28468,12.37292 Z M 128,90.80807 c 12.62497,0 22.85993,10.23449 22.85993,22.85993 0,12.62497 -10.23496,22.85992 -22.85993,22.85992 -12.62497,0 -22.85993,-10.23495 -22.85993,-22.85992 0,-12.62544 10.23496,-22.85993 22.85993,-22.85993 z"
           id="path1"
           inkscape:connector-curvature="0"
           style="fill:#00d8ff;stroke:none;stroke-opacity:0.952862" />
      </g>
      <g
         style="stroke:none;stroke-opacity:0.952862"
         id="g2"
         transform="matrix(0.26093546,0,0,0.25817433,30.668702,797.22162)">
        <text
           id="text1"
           y="937.28839"
           x="65.076897"
           style="font-style:normal;font-weight:normal;font-size:112.231px;line-height:1.25;font-family:sans-serif;letter-spacing:0px;word-spacing:0px;fill:#00d8ff;fill-opacity:1;stroke:none;stroke-width:2.80579;stroke-opacity:0.952862"
           xml:space="preserve"><tspan
             style="font-style:normal;font-variant:normal;font-weight:500;font-stretch:normal;font-size:112.232px;font-family:Roboto;-inkscape-font-specification:'Roboto, Medium';font-variant-ligatures:normal;font-variant-caps:normal;font-variant-numeric:normal;font-feature-settings:normal;text-align:start;writing-mode:lr-tb;text-anchor:start;fill:#00d8ff;fill-opacity:1;stroke:none;stroke-width:2.80579;stroke-opacity:0.952862"
             y="937.28839"
             x="65.076897"
             id="tspan1"
             sodipodi:role="line">React</tspan></text>
        <text
           id="text2"
           y="988.80884"
           x="129.89871"
           style="font-style:normal;font-weight:normal;font-size:40px;line-height:1.25;font-family:sans-serif;letter-spacing:0px;word-spacing:0px;fill:#ffffff;fill-opacity:1;stroke:none;stroke-opacity:0.952862"
           xml:space="preserve" />
      </g>
    </g>
  </g>
</svg>
