<?xml version="1.0" encoding="UTF-8" standalone="no"?>
<!-- Created with Inkscape (http://www.inkscape.org/) -->

<svg
   width="172"
   height="45"
   viewBox="0 0 45.508333 11.90625"
   version="1.1"
   id="svg1671"
   inkscape:version="1.3 (0e150ed6c4, 2023-07-21)"
   sodipodi:docname="ubuntu.svg"
   xmlns:inkscape="http://www.inkscape.org/namespaces/inkscape"
   xmlns:sodipodi="http://sodipodi.sourceforge.net/DTD/sodipodi-0.dtd"
   xmlns="http://www.w3.org/2000/svg"
   xmlns:svg="http://www.w3.org/2000/svg"
   xmlns:rdf="http://www.w3.org/1999/02/22-rdf-syntax-ns#"
   xmlns:cc="http://creativecommons.org/ns#"
   xmlns:dc="http://purl.org/dc/elements/1.1/">
  <defs
     id="defs1665" />
  <sodipodi:namedview
     id="base"
     pagecolor="#ffffff"
     bordercolor="#666666"
     borderopacity="1.0"
     inkscape:pageopacity="0.0"
     inkscape:pageshadow="2"
     inkscape:zoom="2.8"
     inkscape:cx="-46.428571"
     inkscape:cy="40.357143"
     inkscape:document-units="mm"
     inkscape:current-layer="layer1"
     showgrid="true"
     fit-margin-top="0"
     fit-margin-left="0"
     fit-margin-right="0"
     fit-margin-bottom="0"
     inkscape:window-width="1720"
     inkscape:window-height="1376"
     inkscape:window-x="0"
     inkscape:window-y="27"
     inkscape:window-maximized="0"
     showguides="true"
     inkscape:guide-bbox="true"
     showborder="false"
     units="px"
     inkscape:showpageshadow="2"
     inkscape:pagecheckerboard="0"
     inkscape:deskcolor="#d1d1d1">
    <sodipodi:guide
       position="22.886458,28.067858"
       orientation="1,0"
       id="guide828"
       inkscape:locked="false"
       inkscape:label=""
       inkscape:color="rgb(0,0,255)" />
    <inkscape:grid
       id="grid1"
       units="px"
       originx="0"
       originy="0"
       spacingx="0.26458333"
       spacingy="0.26458333"
       empcolor="#0099e5"
       empopacity="0.30196078"
       color="#0099e5"
       opacity="0.14901961"
       empspacing="5"
       dotted="false"
       gridanglex="30"
       gridanglez="30"
       visible="true" />
  </sodipodi:namedview>
  <metadata
     id="metadata1668">
    <rdf:RDF>
      <cc:Work
         rdf:about="">
        <dc:format>image/svg+xml</dc:format>
        <dc:type
           rdf:resource="http://purl.org/dc/dcmitype/StillImage" />
      </cc:Work>
    </rdf:RDF>
  </metadata>
  <g
     inkscape:label="Layer 1"
     inkscape:groupmode="layer"
     id="layer1"
     transform="translate(-87.134294,-137.47254)">
    <g
       id="g1"
       transform="matrix(1.1378733,0,0,1.1378733,-20.234087,-19.819946)">
      <text
         id="text2609"
         y="145.20981"
         x="106.55135"
         style="font-style:normal;font-weight:normal;font-size:10.5833px;line-height:1.25;font-family:sans-serif;letter-spacing:0px;word-spacing:0px;fill:#dd4814;fill-opacity:1;stroke:none;stroke-width:0.264583"
         xml:space="preserve"><tspan
           style="font-style:normal;font-variant:normal;font-weight:normal;font-stretch:normal;font-size:5.64444px;font-family:Ubuntu;-inkscape-font-specification:'Ubuntu, Normal';font-variant-ligatures:normal;font-variant-caps:normal;font-variant-numeric:normal;font-feature-settings:normal;text-align:start;writing-mode:lr-tb;text-anchor:start;fill:#dd4814;fill-opacity:1;stroke-width:0.264583"
           y="145.20981"
           x="106.55135"
           id="tspan2607"
           sodipodi:role="line">Ubuntu</tspan></text>
      <g
         style="stroke:none"
         transform="matrix(0.04097533,0,0,0.04097533,94.347742,138.23374)"
         id="g2700">
        <path
           style="fill:#dd4814;stroke:none"
           inkscape:connector-curvature="0"
           d="m 255.6374,127.68319 c 0,70.51336 -57.16533,127.68019 -127.68319,127.68019 C 57.434839,255.36338 0.27026393,198.19655 0.27026393,127.68319 0.27026393,57.165326 57.435589,0 127.95421,0 198.47282,0 255.6374,57.165326 255.6374,127.68319 Z"
           id="path2696" />
        <path
           style="fill:#ffffff;stroke:none"
           inkscape:connector-curvature="0"
           d="m 41.133419,110.63254 c -9.419448,0 -17.050651,7.63195 -17.050651,17.05065 0,9.41419 7.631203,17.0454 17.050651,17.0454 9.414194,0 17.045396,-7.63121 17.045396,-17.0454 0,-9.4187 -7.631202,-17.05065 -17.045396,-17.05065 z M 162.84828,188.1112 c -8.15371,4.70935 -10.94944,15.12953 -6.23934,23.27873 4.70409,8.15372 15.12427,10.9487 23.27798,6.23935 8.15296,-4.7041 10.94869,-15.12427 6.23934,-23.27874 -4.70409,-8.14845 -15.13027,-10.94343 -23.27798,-6.23934 z M 78.16183,127.68319 c 0,-16.84645 8.367671,-31.729735 21.171425,-40.742287 L 86.870334,66.066768 c -14.914815,9.969736 -26.012152,25.204364 -30.623906,43.047042 5.381255,4.39104 8.825619,11.07556 8.825619,18.56863 0,7.48856 -3.444364,14.17309 -8.825619,18.56413 4.605748,17.84793 15.703085,33.08331 30.623906,43.05304 L 99.333255,168.42022 C 86.529501,159.41293 78.16183,144.53039 78.16183,127.68319 Z m 49.79238,-49.79763 c 26.0129,0 47.35474,19.944727 49.59493,45.38032 l 24.29072,-0.3581 c -1.19517,-18.77809 -9.39843,-35.635804 -22.00324,-48.031909 -6.48183,2.448892 -13.96889,2.074276 -20.44021,-1.656117 C 152.91383,69.47885 148.84936,63.168188 147.73828,56.317748 141.43812,54.57905 134.80765,53.62712 127.9527,53.62712 c -11.78425,0 -22.92588,2.767953 -32.818295,7.664235 l 11.845065,21.226229 c 6.37223,-2.965396 13.48092,-4.632024 20.97474,-4.632024 z m 0,99.59001 c -7.49382,0 -14.60251,-1.66738 -20.97399,-4.63203 l -11.845065,21.22548 c 9.892415,4.90229 21.034045,7.67099 32.819055,7.67099 6.85494,0 13.48541,-0.95268 19.78482,-2.69663 1.11108,-6.85044 5.17705,-13.1551 11.65813,-16.90276 6.47582,-3.7364 13.95838,-4.10426 20.44021,-1.65537 12.60481,-12.3961 20.80807,-29.25381 22.00324,-48.0319 l -24.29673,-0.3581 c -2.23493,25.44234 -23.57602,45.38032 -49.58967,45.38032 z M 162.84228,67.244669 c 8.15371,4.708598 18.57463,1.919624 23.27873,-6.234088 4.70935,-8.153713 1.92037,-18.57464 -6.23409,-23.284739 -8.15371,-4.704094 -18.57389,-1.909115 -23.28474,6.244598 -4.70334,8.149208 -1.90836,18.570135 6.2401,23.274229 z"
           id="path2698" />
      </g>
    </g>
  </g>
</svg>
