<?xml version="1.0" encoding="UTF-8" standalone="no"?>
<svg
   xmlns:dc="http://purl.org/dc/elements/1.1/"
   xmlns:cc="http://creativecommons.org/ns#"
   xmlns:rdf="http://www.w3.org/1999/02/22-rdf-syntax-ns#"
   xmlns:svg="http://www.w3.org/2000/svg"
   xmlns="http://www.w3.org/2000/svg"
   xmlns:sodipodi="http://sodipodi.sourceforge.net/DTD/sodipodi-0.dtd"
   xmlns:inkscape="http://www.inkscape.org/namespaces/inkscape"
   data-name="Layer 1"
   viewBox="0 0 1423.4301 497"
   version="1.1"
   id="svg287"
   sodipodi:docname="responsive.svg"
   width="1423.4301"
   height="497"
   inkscape:version="0.92.3 (unknown)">
  <metadata
     id="metadata291">
    <rdf:RDF>
      <cc:Work
         rdf:about="">
        <dc:format>image/svg+xml</dc:format>
        <dc:type
           rdf:resource="http://purl.org/dc/dcmitype/StillImage" />
        <dc:title></dc:title>
      </cc:Work>
    </rdf:RDF>
  </metadata>
  <sodipodi:namedview
     pagecolor="#ffffff"
     bordercolor="#666666"
     borderopacity="1"
     objecttolerance="10"
     gridtolerance="10"
     guidetolerance="10"
     inkscape:pageopacity="0"
     inkscape:pageshadow="2"
     inkscape:window-width="1920"
     inkscape:window-height="1048"
     id="namedview289"
     showgrid="false"
     fit-margin-top="0"
     fit-margin-left="0"
     fit-margin-right="0"
     fit-margin-bottom="0"
     inkscape:zoom="0.16770833"
     inkscape:cx="153.22808"
     inkscape:cy="261.23"
     inkscape:window-x="0"
     inkscape:window-y="0"
     inkscape:window-maximized="1"
     inkscape:current-layer="svg287" />
  <defs
     id="defs45">
    <style
       id="style2">.cls-1{fill:#040404;}.cls-2{fill:#fff;}.cls-3{fill:#4d4d4d;}.cls-4{fill:#86328c;}.cls-5{fill:#f7f7f7;}.cls-6{fill:#ec008c;}.cls-7{fill:#0083ca;}.cls-8{fill:#999;}.cls-9{fill:#ed1164;}.cls-10{fill:#afafaf;}.cls-11{fill:#919296;}.cls-12{fill:url(#e);}.cls-13{fill:#464142;}.cls-14{fill:url(#d);}.cls-15{fill:#1d1e21;}.cls-16{fill:#0d0f12;}.cls-17{fill:#1c1e20;}.cls-18{fill:#dcdde0;}.cls-19{fill:#cecece;}.cls-20{stroke:#0c0c0c;fill:url(#c);}.cls-20,.cls-22,.cls-26{stroke-miterlimit:10;}.cls-21{opacity:0.63;}.cls-22{fill:none;stroke:#424242;}.cls-22,.cls-28{opacity:0.55;}.cls-23{fill:#191918;}.cls-24{fill:#423f43;}.cls-25{fill:#666;}.cls-26{fill:url(#b);stroke:url(#a);}.cls-27{opacity:0.93;}</style>
    <linearGradient
       id="e"
       x1="635.28003"
       x2="1420.2"
       y1="750.66998"
       y2="750.66998"
       gradientUnits="userSpaceOnUse">
      <stop
         stop-color="#606162"
         offset="0"
         id="stop4" />
      <stop
         stop-color="#b7babb"
         offset=".12"
         id="stop6" />
      <stop
         stop-color="#a2a5a6"
         offset=".36"
         id="stop8" />
      <stop
         stop-color="#c9cccd"
         offset=".51"
         id="stop10" />
      <stop
         stop-color="#848687"
         offset=".73"
         id="stop12" />
      <stop
         stop-color="#9c9fa0"
         offset=".88"
         id="stop14" />
      <stop
         stop-color="#4c4d4e"
         offset="1"
         id="stop16" />
    </linearGradient>
    <linearGradient
       id="d"
       x1="1023.8"
       x2="1023.8"
       y1="738.51001"
       y2="749.87"
       gradientUnits="userSpaceOnUse">
      <stop
         stop-color="#9c9fa0"
         offset="0"
         id="stop19" />
      <stop
         stop-color="#a2a5a6"
         offset=".24"
         id="stop21" />
      <stop
         stop-color="#4c4d4e"
         offset="1"
         id="stop23" />
    </linearGradient>
    <linearGradient
       id="c"
       x1="1564.1"
       x2="1572.8"
       y1="765.09998"
       y2="750.06"
       gradientUnits="userSpaceOnUse">
      <stop
         stop-color="#0a0a0a"
         offset="0"
         id="stop26" />
      <stop
         stop-color="#1b1b1b"
         offset=".57"
         id="stop28" />
      <stop
         stop-color="#090909"
         offset="1"
         id="stop30" />
    </linearGradient>
    <radialGradient
       id="b"
       cx="390.29001"
       cy="758.76001"
       r="10.65"
       gradientTransform="matrix(0.67172059,0.7408046,-0.44448276,0.40303235,465.38,163.82)"
       gradientUnits="userSpaceOnUse">
      <stop
         stop-color="#2a2a2a"
         offset="0"
         id="stop33" />
      <stop
         stop-color="#090909"
         offset="1"
         id="stop35" />
    </radialGradient>
    <radialGradient
       id="a"
       cx="390.29001"
       cy="758.76001"
       r="11.15"
       gradientTransform="rotate(47.8,390.29398,758.7487)"
       gradientUnits="userSpaceOnUse">
      <stop
         stop-color="#464646"
         offset=".13"
         id="stop38" />
      <stop
         stop-color="#2b2b2b"
         offset=".37"
         id="stop40" />
      <stop
         stop-color="#090909"
         offset="1"
         id="stop42" />
    </radialGradient>
  </defs>
  <g
     id="g1218"
     transform="translate(-213.48,-304.23)">
    <path
       id="path47"
       d="M 748.75,320.73 H 1311 a 35.18,35.18 0 0 1 35.18,35.18 V 736.74 H 713.57 V 355.91 a 35.18,35.18 0 0 1 35.18,-35.18 z"
       class="cls-1"
       inkscape:connector-curvature="0"
       style="fill:#040404" />
    <rect
       id="rect49"
       ry="2.21"
       rx="2.21"
       height="342.5"
       width="570.87"
       y="359.01999"
       x="745.67999"
       class="cls-2"
       style="fill:#ffffff" />
    <ellipse
       id="ellipse51"
       ry="2.1500001"
       rx="3.6199999"
       cy="341.95001"
       cx="1030.8"
       class="cls-3"
       style="fill:#4d4d4d" />
    <image
       id="image53"
       height="75"
       width="77"
       transform="translate(991.71,304.23)" />
    <rect
       id="rect55"
       height="23.16"
       width="570.87"
       y="375.76001"
       x="744.87"
       class="cls-4"
       style="fill:#86328c" />
    <rect
       id="rect57"
       height="120.11"
       width="464.57001"
       y="409.42999"
       x="794.56"
       class="cls-4"
       style="fill:#86328c" />
    <rect
       id="rect59"
       height="24.48"
       width="294.79001"
       y="460.95999"
       x="879.45001"
       class="cls-5"
       style="fill:#f7f7f7" />
    <rect
       id="rect61"
       height="24.77"
       width="62.790001"
       y="460.95999"
       x="1111.4"
       class="cls-6"
       style="fill:#ec008c" />
    <rect
       id="rect63"
       height="63.189999"
       width="143.28999"
       y="542.91998"
       x="954.76001"
       class="cls-7"
       style="fill:#0083ca" />
    <rect
       id="rect65"
       height="63.189999"
       width="143.28999"
       y="541.46002"
       x="1115.8"
       class="cls-7"
       style="fill:#0083ca" />
    <rect
       id="rect67"
       height="63.189999"
       width="143.28999"
       y="542.91998"
       x="794.56"
       class="cls-7"
       style="fill:#0083ca" />
    <rect
       id="rect69"
       height="4.21"
       width="143.28999"
       y="616.31"
       x="955.20001"
       class="cls-8"
       style="fill:#999999" />
    <rect
       id="rect71"
       height="4.21"
       width="143.28999"
       y="628.39001"
       x="955.20001"
       class="cls-8"
       style="fill:#999999" />
    <rect
       id="rect73"
       height="4.21"
       width="143.28999"
       y="640.46997"
       x="955.20001"
       class="cls-8"
       style="fill:#999999" />
    <rect
       id="rect75"
       height="4.21"
       width="143.28999"
       y="652.56"
       x="955.20001"
       class="cls-8"
       style="fill:#999999" />
    <rect
       id="rect77"
       height="34.709999"
       width="464.57001"
       y="666.65002"
       x="794.56"
       class="cls-9"
       style="fill:#ed1164" />
    <rect
       id="rect79"
       height="4.21"
       width="143.28999"
       y="615.84003"
       x="794.56"
       class="cls-8"
       style="fill:#999999" />
    <rect
       id="rect81"
       height="4.21"
       width="143.28999"
       y="627.91998"
       x="794.56"
       class="cls-8"
       style="fill:#999999" />
    <rect
       id="rect83"
       height="4.21"
       width="143.28999"
       y="640"
       x="794.56"
       class="cls-8"
       style="fill:#999999" />
    <rect
       id="rect85"
       height="4.21"
       width="143.28999"
       y="652.08002"
       x="794.56"
       class="cls-8"
       style="fill:#999999" />
    <rect
       id="rect87"
       height="4.21"
       width="143.28999"
       y="616.31"
       x="1115.8"
       class="cls-8"
       style="fill:#999999" />
    <rect
       id="rect89"
       height="4.21"
       width="143.28999"
       y="628.39001"
       x="1115.8"
       class="cls-8"
       style="fill:#999999" />
    <rect
       id="rect91"
       height="4.21"
       width="143.28999"
       y="640.46997"
       x="1115.8"
       class="cls-8"
       style="fill:#999999" />
    <rect
       id="rect93"
       height="4.21"
       width="143.28999"
       y="652.56"
       x="1115.8"
       class="cls-8"
       style="fill:#999999" />
    <rect
       id="rect95"
       height="5.75"
       width="69.349998"
       y="385.14001"
       x="1117.9"
       class="cls-8"
       style="fill:#999999" />
    <rect
       id="rect97"
       height="5.75"
       width="69.349998"
       y="385.14001"
       x="1030.8"
       class="cls-10"
       style="fill:#afafaf" />
    <rect
       id="rect99"
       height="5.75"
       width="69.349998"
       y="385.14001"
       x="860.46997"
       class="cls-8"
       style="fill:#999999" />
    <rect
       id="rect101"
       height="5.75"
       width="69.349998"
       y="385.14001"
       x="943.78003"
       class="cls-8"
       style="fill:#999999" />
    <path
       id="path103"
       d="m 1414.8,757.18 c 0,6.37 -25.13,15.61 -29.82,15.61 H 673.62 c -4.69,0 -29.82,-9.25 -29.82,-15.61 z"
       class="cls-11"
       inkscape:connector-curvature="0"
       style="fill:#919296" />
    <path
       id="path105"
       d="m 635.28,736.61 h 784.87 v 5.24 a 22.88,22.88 0 0 1 -22.88,22.88 H 657.6 a 22.32,22.32 0 0 1 -22.32,-22.32 z"
       class="cls-12"
       inkscape:connector-curvature="0"
       style="fill:url(#e)" />
    <path
       id="path107"
       d="m 1396,769 c 0,2.75 -23.93,6.74 -28.39,6.74 H 690.28 c -4.46,0 -28.39,-4 -28.39,-6.74 z"
       class="cls-13"
       inkscape:connector-curvature="0"
       style="fill:#464142" />
    <path
       id="path109"
       d="m 1078.4,738.51 a 11.57,11.57 0 0 1 -11.25,11.36 h -87.7 c -6.34,0 -10.24,-5.68 -10.24,-11.35 z"
       class="cls-14"
       inkscape:connector-curvature="0"
       style="fill:url(#d)" />
    <path
       id="path111"
       d="m 915.45,773.69 c 2.13,-1.65 8.12,-1.61 9.65,0.06 a 17.18,17.18 0 0 1 -9.65,-0.06 z"
       class="cls-15"
       inkscape:connector-curvature="0"
       style="fill:#1d1e21" />
    <path
       id="path113"
       d="m 1128.2,774.13 c 2.13,-1.65 8.12,-1.61 9.65,0.06 a 17.18,17.18 0 0 1 -9.65,-0.06 z"
       class="cls-15"
       inkscape:connector-curvature="0"
       style="fill:#1d1e21" />
    <path
       id="path115"
       d="m 690,773.37 c 2.13,-1.65 8.12,-1.61 9.65,0.06 A 17.18,17.18 0 0 1 690,773.37 Z"
       class="cls-15"
       inkscape:connector-curvature="0"
       style="fill:#1d1e21" />
    <path
       id="path117"
       d="m 1350.3,773.92 c 2.13,-1.65 8.12,-1.61 9.65,0.06 a 17.18,17.18 0 0 1 -9.65,-0.06 z"
       class="cls-15"
       inkscape:connector-curvature="0"
       style="fill:#1d1e21" />
    <path
       id="path119"
       d="m 1343,752.5 a 5.94,5.94 0 0 1 -1.58,0.47 h -23 a 2.07,2.07 0 0 1 -1.57,-0.51 c 8.71,-0.21 17.44,-0.27 26.15,0.04 z"
       class="cls-16"
       inkscape:connector-curvature="0"
       style="fill:#0d0f12" />
    <path
       id="path121"
       d="m 1316.4,754.19 c -1,-1.23 -1.89,-2.44 0.42,-3.24 5.82,0.52 11.65,0.15 17.47,0.21 A 53.36,53.36 0 0 0 1343,751 c 2.3,1.13 1.26,2.22 0,3.3 -1.55,0.66 -3.18,0.29 -4.76,0.3 -6.36,0.05 -12.73,0 -19.1,0 -0.93,-0.02 -1.93,0.4 -2.74,-0.41 z"
       class="cls-17"
       inkscape:connector-curvature="0"
       style="fill:#1c1e20" />
    <path
       id="path123"
       d="m 1316.4,754.19 26.58,0.08 a 3.73,3.73 0 0 1 -0.05,0.47 q -13.18,0.07 -26.36,0.09 c -0.07,0 -0.2,-0.09 -0.2,-0.14 a 3.22,3.22 0 0 1 0.03,-0.5 z"
       class="cls-18"
       inkscape:connector-curvature="0"
       style="fill:#dcdde0" />
    <path
       id="path125"
       d="m 1343,751 a 5.94,5.94 0 0 1 -1.58,0.47 h -23 a 2.07,2.07 0 0 1 -1.57,-0.51 c 8.71,-0.23 17.44,-0.29 26.15,0.04 z"
       class="cls-16"
       inkscape:connector-curvature="0"
       style="fill:#0d0f12" />
    <path
       id="path127"
       d="m 1343,751 a 5.94,5.94 0 0 1 -1.58,0.47 h -23 a 2.07,2.07 0 0 1 -1.57,-0.51 c 8.71,-0.23 17.44,-0.29 26.15,0.04 z"
       class="cls-16"
       inkscape:connector-curvature="0"
       style="fill:#0d0f12" />
    <path
       id="path129"
       d="m 1316.4,754.19 c -1,-1.23 -1.89,-2.44 0.42,-3.24 5.82,0.52 11.65,0.15 17.47,0.21 A 53.36,53.36 0 0 0 1343,751 c 2.3,1.13 1.26,2.22 0,3.3 -1.55,0.66 -3.18,0.29 -4.76,0.3 -6.36,0.05 -12.73,0 -19.1,0 -0.93,-0.02 -1.93,0.4 -2.74,-0.41 z"
       class="cls-17"
       inkscape:connector-curvature="0"
       style="fill:#1c1e20" />
    <path
       id="path131"
       d="m 1316.4,754.19 26.58,0.08 a 3.73,3.73 0 0 1 -0.05,0.47 q -13.18,0.07 -26.36,0.09 c -0.07,0 -0.2,-0.09 -0.2,-0.14 a 3.22,3.22 0 0 1 0.03,-0.5 z"
       class="cls-19"
       inkscape:connector-curvature="0"
       style="fill:#cecece" />
    <path
       id="path133"
       d="m 1343,751 a 5.94,5.94 0 0 1 -1.58,0.47 h -23 a 2.07,2.07 0 0 1 -1.57,-0.51 c 8.71,-0.23 17.44,-0.29 26.15,0.04 z"
       class="cls-16"
       inkscape:connector-curvature="0"
       style="fill:#0d0f12" />
    <rect
       id="rect135"
       ry="20.530001"
       rx="20.530001"
       height="261.76001"
       width="139.00999"
       y="513.79999"
       x="1497.9"
       class="cls-1"
       style="fill:#040404" />
    <ellipse
       id="ellipse137"
       ry="8.8599997"
       rx="8.1099997"
       cy="757.58002"
       cx="1568.4"
       class="cls-20"
       style="fill:url(#c);stroke:#0c0c0c;stroke-miterlimit:10" />
    <g
       id="g141"
       class="cls-21"
       style="opacity:0.62999998">
      <image
         id="image139"
         height="86"
         width="85"
         transform="translate(1525.8,714.68)" />
    </g>
    <path
       id="path143"
       d="m 1566.8,755.41 h 2.75 a 1,1 0 0 1 1,1 v 2.31 a 1.68,1.68 0 0 1 -1.68,1.68 h -2.09 a 1,1 0 0 1 -1,-1 v -3 a 1,1 0 0 1 1.02,-0.99 z"
       class="cls-22"
       inkscape:connector-curvature="0"
       style="opacity:0.55;fill:none;stroke:#424242;stroke-miterlimit:10" />
    <ellipse
       id="ellipse145"
       ry="1.3"
       rx="0.86000001"
       cy="533.13"
       cx="1552.8"
       class="cls-3"
       style="fill:#4d4d4d" />
    <image
       id="image147"
       height="74"
       width="74"
       transform="translate(1515.8,495.68)" />
    <rect
       id="rect149"
       ry="1.1799999"
       rx="1.1799999"
       height="2.3599999"
       width="18.25"
       y="532.22998"
       x="1559.8"
       class="cls-23"
       style="fill:#191918" />
    <rect
       id="rect151"
       ry="0.88999999"
       rx="0.88999999"
       height="1.77"
       width="15.43"
       y="532.52002"
       x="1561.4"
       class="cls-24"
       style="fill:#423f43" />
    <image
       id="image153"
       height="73"
       width="82"
       transform="translate(1530.8,496.68)" />
    <rect
       id="rect155"
       ry="2.21"
       rx="2.21"
       height="186.7"
       width="113.99"
       y="548.29999"
       x="1511.1"
       class="cls-2"
       style="fill:#ffffff" />
    <rect
       id="rect157"
       height="11.68"
       width="113.99"
       y="561.90002"
       x="1511.1"
       class="cls-4"
       style="fill:#86328c" />
    <rect
       id="rect159"
       height="55.880001"
       width="113.99"
       y="580.23999"
       x="1511.2"
       class="cls-4"
       style="fill:#86328c" />
    <rect
       id="rect161"
       height="12.06"
       width="82.519997"
       y="601.15002"
       x="1523.1"
       class="cls-5"
       style="fill:#f7f7f7" />
    <rect
       id="rect163"
       height="22.32"
       width="28.610001"
       y="641.06"
       x="1553.6"
       class="cls-7"
       style="fill:#0083ca" />
    <rect
       id="rect165"
       height="22.32"
       width="28.610001"
       y="641.16998"
       x="1589.9"
       class="cls-7"
       style="fill:#0083ca" />
    <rect
       id="rect167"
       height="22.32"
       width="28.610001"
       y="641.16998"
       x="1517.6"
       class="cls-7"
       style="fill:#0083ca" />
    <rect
       id="rect169"
       height="2.05"
       width="28.610001"
       y="667.76001"
       x="1553.6"
       class="cls-8"
       style="fill:#999999" />
    <rect
       id="rect171"
       height="2.05"
       width="28.610001"
       y="672.29999"
       x="1553.6"
       class="cls-8"
       style="fill:#999999" />
    <rect
       id="rect173"
       height="2.05"
       width="28.610001"
       y="676.84003"
       x="1553.6"
       class="cls-8"
       style="fill:#999999" />
    <rect
       id="rect175"
       height="2.05"
       width="28.610001"
       y="681.38"
       x="1553.6"
       class="cls-8"
       style="fill:#999999" />
    <rect
       id="rect177"
       height="2.05"
       width="28.610001"
       y="685.91998"
       x="1553.6"
       class="cls-8"
       style="fill:#999999" />
    <rect
       id="rect179"
       height="2.05"
       width="28.610001"
       y="667.70001"
       x="1589.9"
       class="cls-8"
       style="fill:#999999" />
    <rect
       id="rect181"
       height="2.05"
       width="28.610001"
       y="672.23999"
       x="1589.9"
       class="cls-8"
       style="fill:#999999" />
    <rect
       id="rect183"
       height="2.05"
       width="28.610001"
       y="676.78003"
       x="1589.9"
       class="cls-8"
       style="fill:#999999" />
    <rect
       id="rect185"
       height="2.05"
       width="28.610001"
       y="681.32001"
       x="1589.9"
       class="cls-8"
       style="fill:#999999" />
    <rect
       id="rect187"
       height="2.05"
       width="28.610001"
       y="685.87"
       x="1589.9"
       class="cls-8"
       style="fill:#999999" />
    <rect
       id="rect189"
       height="2.05"
       width="28.610001"
       y="667.70001"
       x="1517.6"
       class="cls-8"
       style="fill:#999999" />
    <rect
       id="rect191"
       height="2.05"
       width="28.610001"
       y="672.23999"
       x="1517.6"
       class="cls-8"
       style="fill:#999999" />
    <rect
       id="rect193"
       height="2.05"
       width="28.610001"
       y="676.78003"
       x="1517.6"
       class="cls-8"
       style="fill:#999999" />
    <rect
       id="rect195"
       height="2.05"
       width="28.610001"
       y="681.32001"
       x="1517.6"
       class="cls-8"
       style="fill:#999999" />
    <rect
       id="rect197"
       height="2.05"
       width="28.610001"
       y="685.87"
       x="1517.6"
       class="cls-8"
       style="fill:#999999" />
    <rect
       id="rect199"
       height="28.290001"
       width="100.93"
       y="692.44"
       x="1517.7"
       class="cls-9"
       style="fill:#ed1164" />
    <rect
       id="rect201"
       height="2.04"
       width="100.93"
       y="724.58002"
       x="1517.7"
       class="cls-8"
       style="fill:#999999" />
    <rect
       id="rect203"
       height="2.0899999"
       width="100.93"
       y="729.13"
       x="1517.7"
       class="cls-8"
       style="fill:#999999" />
    <rect
       id="rect205"
       height="0.75"
       width="5.3899999"
       y="552.40997"
       x="1514.8"
       class="cls-25"
       style="fill:#666666" />
    <rect
       id="rect207"
       height="0.75"
       width="5.3899999"
       y="554.56"
       x="1514.8"
       class="cls-25"
       style="fill:#666666" />
    <rect
       id="rect209"
       height="0.75"
       width="5.3899999"
       y="556.71002"
       x="1514.8"
       class="cls-25"
       style="fill:#666666" />
    <rect
       id="rect211"
       height="12.29"
       width="15.89"
       y="601.15002"
       x="1589.9"
       class="cls-6"
       style="fill:#ec008c" />
    <rect
       id="rect213"
       ry="35.18"
       rx="35.18"
       height="459.23001"
       width="353.63"
       y="318.60999"
       x="213.48"
       class="cls-1"
       style="fill:#040404" />
    <rect
       id="rect215"
       ry="2.21"
       rx="2.21"
       height="378.09"
       width="284.78"
       y="360.88"
       x="247.89999"
       class="cls-2"
       style="fill:#ffffff" />
    <circle
       id="circle217"
       r="2.3699999"
       cy="342.07999"
       cx="390.29001"
       class="cls-3"
       style="fill:#4d4d4d" />
    <image
       id="image219"
       height="75"
       width="76"
       transform="translate(351.71,304.23)" />
    <circle
       id="circle221"
       r="10.65"
       cy="758.76001"
       cx="390.29001"
       transform="rotate(-47.8,390.28495,758.75948)"
       class="cls-26"
       style="fill:url(#b);stroke:url(#a);stroke-miterlimit:10" />
    <g
       id="g225"
       class="cls-27"
       style="opacity:0.9300001">
      <image
         id="image223"
         height="85"
         width="88"
         transform="translate(346.71,716.23)" />
    </g>
    <g
       id="g229"
       class="cls-28"
       style="opacity:0.55">
      <image
         id="image227"
         height="80"
         width="80"
         transform="translate(350.71,719.23)" />
    </g>
    <rect
       id="rect231"
       height="23.75"
       width="284.78"
       y="390.12"
       x="247.89999"
       class="cls-4"
       style="fill:#86328c" />
    <rect
       id="rect233"
       height="113.64"
       width="252.64"
       y="427.42001"
       x="263.82001"
       class="cls-4"
       style="fill:#86328c" />
    <rect
       id="rect235"
       height="19.360001"
       width="184.2"
       y="476.04999"
       x="295.82001"
       class="cls-5"
       style="fill:#f7f7f7" />
    <rect
       id="rect237"
       height="19.58"
       width="39.23"
       y="476.04999"
       x="440.78"
       class="cls-6"
       style="fill:#ec008c" />
    <rect
       id="rect239"
       height="45.380001"
       width="71.480003"
       y="551.09998"
       x="354.12"
       class="cls-7"
       style="fill:#0083ca" />
    <rect
       id="rect241"
       height="45.380001"
       width="71.480003"
       y="551.33002"
       x="444.70999"
       class="cls-7"
       style="fill:#0083ca" />
    <rect
       id="rect243"
       height="45.380001"
       width="71.480003"
       y="551.33002"
       x="264.04001"
       class="cls-7"
       style="fill:#0083ca" />
    <rect
       id="rect245"
       height="4.1700001"
       width="71.480003"
       y="605.39001"
       x="354.12"
       class="cls-8"
       style="fill:#999999" />
    <rect
       id="rect247"
       height="4.1700001"
       width="71.480003"
       y="614.62"
       x="354.12"
       class="cls-8"
       style="fill:#999999" />
    <rect
       id="rect249"
       height="4.1700001"
       width="71.480003"
       y="623.85999"
       x="354.12"
       class="cls-8"
       style="fill:#999999" />
    <rect
       id="rect251"
       height="4.1700001"
       width="71.480003"
       y="633.09003"
       x="354.12"
       class="cls-8"
       style="fill:#999999" />
    <rect
       id="rect253"
       height="4.1700001"
       width="71.480003"
       y="642.33002"
       x="354.12"
       class="cls-8"
       style="fill:#999999" />
    <rect
       id="rect255"
       height="4.1700001"
       width="71.480003"
       y="605.27002"
       x="444.70999"
       class="cls-8"
       style="fill:#999999" />
    <rect
       id="rect257"
       height="4.1700001"
       width="71.480003"
       y="614.51001"
       x="444.70999"
       class="cls-8"
       style="fill:#999999" />
    <rect
       id="rect259"
       height="4.1700001"
       width="71.480003"
       y="623.73999"
       x="444.70999"
       class="cls-8"
       style="fill:#999999" />
    <rect
       id="rect261"
       height="4.1700001"
       width="71.480003"
       y="632.97998"
       x="444.70999"
       class="cls-8"
       style="fill:#999999" />
    <rect
       id="rect263"
       height="4.1700001"
       width="71.480003"
       y="642.21002"
       x="444.70999"
       class="cls-8"
       style="fill:#999999" />
    <rect
       id="rect265"
       height="4.1700001"
       width="71.480003"
       y="605.27002"
       x="264.04001"
       class="cls-8"
       style="fill:#999999" />
    <rect
       id="rect267"
       height="4.1700001"
       width="71.480003"
       y="614.51001"
       x="264.04001"
       class="cls-8"
       style="fill:#999999" />
    <rect
       id="rect269"
       height="4.1700001"
       width="71.480003"
       y="623.73999"
       x="264.04001"
       class="cls-8"
       style="fill:#999999" />
    <rect
       id="rect271"
       height="4.1700001"
       width="71.480003"
       y="632.97998"
       x="264.04001"
       class="cls-8"
       style="fill:#999999" />
    <rect
       id="rect273"
       height="4.1700001"
       width="71.480003"
       y="642.21002"
       x="264.04001"
       class="cls-8"
       style="fill:#999999" />
    <rect
       id="rect275"
       height="57.529999"
       width="252.14999"
       y="655.58002"
       x="264.31"
       class="cls-9"
       style="fill:#ed1164" />
    <rect
       id="rect277"
       height="4.1500001"
       width="252.14999"
       y="720.95001"
       x="264.31"
       class="cls-8"
       style="fill:#999999" />
    <rect
       id="rect279"
       height="4.25"
       width="252.14999"
       y="730.19"
       x="264.31"
       class="cls-8"
       style="fill:#999999" />
    <rect
       id="rect281"
       height="1.53"
       width="13.46"
       y="370.82999"
       x="257.09"
       class="cls-25"
       style="fill:#666666" />
    <rect
       id="rect283"
       height="1.53"
       width="13.46"
       y="375.20001"
       x="257.09"
       class="cls-25"
       style="fill:#666666" />
    <rect
       id="rect285"
       height="1.53"
       width="13.46"
       y="379.57999"
       x="257.09"
       class="cls-25"
       style="fill:#666666" />
  </g>
</svg>
